<svg id="Layer_1" data-name="Layer 1" xmlns="http://www.w3.org/2000/svg" width="855.08" height="217.69" viewBox="0 0 855.08 217.69"><defs><style>.cls-1{fill:#47897c;}.cls-2{fill:#424243;}.cls-3{fill:#cd1f3c;}.cls-4{fill:#e5576b;}.cls-5{fill:#e45150;}.cls-6{fill:#ed6624;}.cls-7{fill:#47786a;}.cls-8{fill:#e03b5a;}.cls-9{fill:#76ae9e;}.cls-10{fill:#64a392;}.cls-11{fill:#9ec1a6;}.cls-12{fill:#fff;}.cls-13{fill:#f9b827;}.cls-14{fill:#f48f99;}.cls-15{fill:#48887d;}.cls-16{fill:#8ab8a2;}.cls-17{fill:#ffcf59;}.cls-18{fill:#ffc940;}.cls-19{fill:#ffc746;}.cls-20{fill:#ffc742;}.cls-21{fill:#ffc658;}.cls-22{fill:#fabc49;}.cls-23{fill:#ffc968;}.cls-24{fill:#ffc43f;}.cls-25{fill:#fcc55c;}.cls-26{fill:#ffd68c;}.cls-27{fill:#ffc660;}.cls-28{fill:#ffc552;}.cls-29{fill:#ffcf67;}.cls-30{fill:#ffcd66;}.cls-31{fill:#ffc844;}.cls-32{fill:#ffcb4c;}.cls-33{fill:#f9b41c;}.cls-34{fill:#c9c158;}.cls-35{fill:#ffcf5c;}.cls-36{fill:#ffdd95;}.cls-37{fill:#38866b;}.cls-38{fill:#ffca49;}.cls-39{fill:#f8b81e;}.cls-40{fill:#539687;}.cls-41{fill:#e46079;}.cls-42{fill:#f3784e;}.cls-43{fill:#da244a;}.cls-44{fill:#4c9182;}.cls-45{fill:#ed8796;}.cls-46{fill:#ffc851;}.cls-47{fill:#ffce60;}.cls-48{fill:#42382f;}.cls-49{fill:#96c3a8;}.cls-50{fill:#78b6a5;}.cls-51{fill:#fab91c;}.cls-52{fill:#f79524;}.cls-53{fill:#635b47;}.cls-54{fill:#1f151c;}.cls-55{fill:#21151e;}</style></defs><title>logo-egpaf-horizontal</title><path class="cls-1" d="M262.61,160.12H252.09a.17.17,0,0,0-.19.19v10.19a.17.17,0,0,0,.19.19h6.43a.41.41,0,0,1,.47.47v3a.41.41,0,0,1-.47.47h-6.43a.17.17,0,0,0-.19.19v13.85a.41.41,0,0,1-.47.47h-3.57a.41.41,0,0,1-.47-.47V156.69a.41.41,0,0,1,.47-.47h14.74a.42.42,0,0,1,.47.47v3A.42.42,0,0,1,262.61,160.12Z"/><path class="cls-1" d="M267,160.59a3,3,0,0,1,2.16-5.16,2.83,2.83,0,0,1,3,3,3.05,3.05,0,0,1-5.16,2.16Zm0,28v-23a.41.41,0,0,1,.47-.47H271a.41.41,0,0,1,.47.47v23a.41.41,0,0,1-.47.47H267.4A.41.41,0,0,1,266.93,188.62Z"/><path class="cls-1" d="M288.33,165.19h3.57a.42.42,0,0,1,.47.47v22.72q0,4.93-2.25,7.63t-7.75,2.7l-1.27,0a.47.47,0,0,1-.47-.52v-3q0-.47.52-.47,3.85.14,5.28-1.53t1.43-5.19v-1a.11.11,0,0,0-.07-.12s-.1,0-.16.07a5.32,5.32,0,0,1-4.55,2.16,5.86,5.86,0,0,1-4.77-2,8.2,8.2,0,0,1-1.67-5.42v-9.39a8.2,8.2,0,0,1,1.69-5.47,5.88,5.88,0,0,1,4.74-2,5.17,5.17,0,0,1,4.55,2.16c.06.06.12.08.16,0a.16.16,0,0,0,.07-.14v-1.22A.41.41,0,0,1,288.33,165.19Zm-1.38,18.94a4,4,0,0,0,.92-2.75v-8.83a4.14,4.14,0,0,0-.92-2.77,3,3,0,0,0-2.42-1.08,3.08,3.08,0,0,0-2.44,1.08,4.07,4.07,0,0,0-.94,2.77v8.83a4,4,0,0,0,.94,2.75,3.11,3.11,0,0,0,2.44,1.06A3,3,0,0,0,286.95,184.13Z"/><path class="cls-1" d="M311.45,166.86a9,9,0,0,1,1.57,5.66v16.1a.42.42,0,0,1-.47.47H309a.41.41,0,0,1-.47-.47V172.89a4.85,4.85,0,0,0-.84-3.05,2.82,2.82,0,0,0-2.35-1.08,3,3,0,0,0-2.42,1.06,5,5,0,0,0-1,3c0,.19,0,.28,0,.28v15.54a.42.42,0,0,1-.47.47h-3.57a.41.41,0,0,1-.47-.47V156.69a.41.41,0,0,1,.47-.47h3.57a.42.42,0,0,1,.47.47v10.23a.11.11,0,0,0,.09.12c.06,0,.13,0,.19-.12a5.78,5.78,0,0,1,4.74-2.07A5.43,5.43,0,0,1,311.45,166.86Z"/><path class="cls-1" d="M327,168.47h-3.29a.17.17,0,0,0-.19.19v13.19a3.93,3.93,0,0,0,.66,2.61,2.53,2.53,0,0,0,2.07.68h.42a.42.42,0,0,1,.47.47v3a.42.42,0,0,1-.47.47h-1.46a7.34,7.34,0,0,1-4.53-1.17q-1.53-1.17-1.53-4.46V168.66a.17.17,0,0,0-.19-.19h-1.83a.41.41,0,0,1-.47-.47v-2.35a.41.41,0,0,1,.47-.47H319a.17.17,0,0,0,.19-.19v-5.3a.42.42,0,0,1,.47-.47h3.43a.42.42,0,0,1,.47.47V165a.17.17,0,0,0,.19.19H327a.41.41,0,0,1,.47.47V168A.41.41,0,0,1,327,168.47Z"/><path class="cls-1" d="M331.85,160.59a3,3,0,0,1,2.16-5.16,2.83,2.83,0,0,1,3,3,3.05,3.05,0,0,1-5.16,2.16Zm0,28v-23a.41.41,0,0,1,.47-.47h3.57a.42.42,0,0,1,.47.47v23a.42.42,0,0,1-.47.47h-3.57A.41.41,0,0,1,331.8,188.62Z"/><path class="cls-1" d="M356,166.86a9,9,0,0,1,1.57,5.66v16.1a.42.42,0,0,1-.47.47h-3.57a.41.41,0,0,1-.47-.47V172.89a4.85,4.85,0,0,0-.84-3.05,2.82,2.82,0,0,0-2.35-1.08,3,3,0,0,0-2.42,1.06,5,5,0,0,0-1,3c0,.19,0,.28,0,.28v15.54a.42.42,0,0,1-.47.47h-3.57a.41.41,0,0,1-.47-.47v-23a.41.41,0,0,1,.47-.47H346a.42.42,0,0,1,.47.47v1.27a.11.11,0,0,0,.09.12c.06,0,.13,0,.19-.12a5.78,5.78,0,0,1,4.74-2.07A5.43,5.43,0,0,1,356,166.86Z"/><path class="cls-1" d="M374,165.19h3.57a.42.42,0,0,1,.47.47v22.72q0,4.93-2.25,7.63t-7.75,2.7l-1.27,0a.47.47,0,0,1-.47-.52v-3q0-.47.52-.47,3.85.14,5.28-1.53t1.43-5.19v-1a.11.11,0,0,0-.07-.12s-.1,0-.16.07a5.32,5.32,0,0,1-4.55,2.16,5.86,5.86,0,0,1-4.76-2,8.2,8.2,0,0,1-1.67-5.42v-9.39a8.19,8.19,0,0,1,1.69-5.47,5.87,5.87,0,0,1,4.74-2,5.17,5.17,0,0,1,4.55,2.16c.06.06.12.08.16,0a.16.16,0,0,0,.07-.14v-1.22A.41.41,0,0,1,374,165.19Zm-1.38,18.94a4,4,0,0,0,.92-2.75v-8.83a4.14,4.14,0,0,0-.92-2.77,3,3,0,0,0-2.42-1.08,3.08,3.08,0,0,0-2.44,1.08,4.07,4.07,0,0,0-.94,2.77v8.83a4,4,0,0,0,.94,2.75,3.11,3.11,0,0,0,2.44,1.06A3,3,0,0,0,372.58,184.13Z"/><path class="cls-1" d="M398.47,165a.17.17,0,0,0,.19.19h3.29a.42.42,0,0,1,.47.47V168a.42.42,0,0,1-.47.47h-3.29a.17.17,0,0,0-.19.19v20a.41.41,0,0,1-.47.47h-3.52a.41.41,0,0,1-.47-.47v-20a.17.17,0,0,0-.19-.19h-1.74a.41.41,0,0,1-.47-.47v-2.35a.41.41,0,0,1,.47-.47h1.74A.17.17,0,0,0,394,165v-1.22q0-4.18,1.74-6t5.63-1.81H402a.42.42,0,0,1,.47.47l-.09,2.86a.41.41,0,0,1-.47.47h-.47a2.55,2.55,0,0,0-2.25,1,5.52,5.52,0,0,0-.71,3.12Z"/><path class="cls-1" d="M408.44,187.42a7.15,7.15,0,0,1-2.14-5.42v-9.72a7.13,7.13,0,0,1,2.16-5.4,9.17,9.17,0,0,1,11.6,0,7.13,7.13,0,0,1,2.16,5.4V182a7.11,7.11,0,0,1-2.16,5.42,8.13,8.13,0,0,1-5.82,2A8,8,0,0,1,408.44,187.42Zm8.29-3a3.93,3.93,0,0,0,1-2.79v-9.11a4,4,0,0,0-1-2.77,3.23,3.23,0,0,0-2.49-1.08,3.15,3.15,0,0,0-2.46,1.08,4,4,0,0,0-1,2.77v9.11a4,4,0,0,0,1,2.79,3.18,3.18,0,0,0,2.46,1.06A3.26,3.26,0,0,0,416.73,184.46Z"/><path class="cls-1" d="M438.18,165.47a.51.51,0,0,1,.23.61l-.7,3.57q0,.42-.56.28a3.64,3.64,0,0,0-1.31-.24,5.66,5.66,0,0,0-.84.09,3.23,3.23,0,0,0-2.42,1.6,6.24,6.24,0,0,0-1,3.52v13.71a.42.42,0,0,1-.47.47h-3.57a.41.41,0,0,1-.47-.47v-23a.41.41,0,0,1,.47-.47h3.57a.42.42,0,0,1,.47.47v2.72c0,.09,0,.15.07.16s.09,0,.12-.12q1.36-3.47,4.37-3.47A3.8,3.8,0,0,1,438.18,165.47Z"/><path class="cls-1" d="M465,167a7.63,7.63,0,0,1,2.18,5.68v16a.42.42,0,0,1-.47.47h-3.57a.41.41,0,0,1-.47-.47v-1a.16.16,0,0,0-.07-.14s-.1,0-.17,0a5.93,5.93,0,0,1-4.83,2,7.67,7.67,0,0,1-4.72-1.53q-2-1.52-2-5.42,0-4.08,2.46-6a10.28,10.28,0,0,1,6.46-1.9h2.72a.17.17,0,0,0,.19-.19v-1.36a5,5,0,0,0-.94-3.17,3,3,0,0,0-2.44-1.2,2.68,2.68,0,0,0-2,.8,3.34,3.34,0,0,0-.94,2.07.42.42,0,0,1-.47.47h-3.8a.41.41,0,0,1-.47-.47,6.92,6.92,0,0,1,2.39-4.88,7.87,7.87,0,0,1,5.35-1.88A7.64,7.64,0,0,1,465,167Zm-3.54,17.51a3.61,3.61,0,0,0,1.22-2.91v-3.19a.17.17,0,0,0-.19-.19h-2.86a4.34,4.34,0,0,0-3,1,3.74,3.74,0,0,0-1.13,2.93,3.44,3.44,0,0,0,.84,2.54,3,3,0,0,0,2.25.84A4.3,4.3,0,0,0,461.47,184.48Z"/><path class="cls-1" d="M486.18,166.86a9,9,0,0,1,1.57,5.66v16.1a.42.42,0,0,1-.47.47h-3.57a.41.41,0,0,1-.47-.47V172.89a4.85,4.85,0,0,0-.84-3.05,2.82,2.82,0,0,0-2.35-1.08,3,3,0,0,0-2.42,1.06,5,5,0,0,0-1,3c0,.19,0,.28,0,.28v15.54a.42.42,0,0,1-.47.47h-3.57a.41.41,0,0,1-.47-.47v-23a.41.41,0,0,1,.47-.47h3.57a.42.42,0,0,1,.47.47v1.27a.11.11,0,0,0,.09.12c.06,0,.13,0,.19-.12a5.78,5.78,0,0,1,4.74-2.07A5.43,5.43,0,0,1,486.18,166.86Z"/><path class="cls-1" d="M515.55,188.66l-1-5.4a.16.16,0,0,0-.07-.14.29.29,0,0,0-.16,0h-7.65a.29.29,0,0,0-.16,0,.16.16,0,0,0-.07.14l-1,5.4a.45.45,0,0,1-.52.42h-3.57a.43.43,0,0,1-.35-.14.43.43,0,0,1-.07-.37l7-31.92a.48.48,0,0,1,.52-.42h4.18a.45.45,0,0,1,.52.42l7,31.92v.09a.37.37,0,0,1-.42.42h-3.66A.48.48,0,0,1,515.55,188.66Zm-8.22-9.15h6.24q.14,0,.14-.19l-3.19-16.67c0-.06-.06-.09-.09-.09s-.06,0-.09.09l-3.15,16.67Q507.19,179.51,507.33,179.51Z"/><path class="cls-1" d="M524.14,188.62V156.69a.41.41,0,0,1,.47-.47h3.57a.41.41,0,0,1,.47.47v31.92a.41.41,0,0,1-.47.47h-3.57A.41.41,0,0,1,524.14,188.62Z"/><path class="cls-1" d="M534.94,188.62V156.69a.41.41,0,0,1,.47-.47h7.7a8.19,8.19,0,0,1,6.2,2.39,9,9,0,0,1,2.3,6.48v15.12a9,9,0,0,1-2.3,6.48,8.19,8.19,0,0,1-6.2,2.39h-7.7A.41.41,0,0,1,534.94,188.62Zm4.69-3.43,3.43,0a3.45,3.45,0,0,0,2.86-1.38A6.2,6.2,0,0,0,547,180V165.33a6.1,6.1,0,0,0-1.08-3.8,3.48,3.48,0,0,0-2.91-1.41h-3.43a.17.17,0,0,0-.19.19V185A.17.17,0,0,0,539.63,185.19Z"/><path class="cls-1" d="M558.57,187.14a8.31,8.31,0,0,1-2.28-6.08v-1.22a.41.41,0,0,1,.47-.47h3.47a.42.42,0,0,1,.47.47v1a5.2,5.2,0,0,0,1.08,3.45,3.45,3.45,0,0,0,2.77,1.29,3.57,3.57,0,0,0,2.79-1.24,5.29,5.29,0,0,0,.52-5.66,7,7,0,0,0-1.55-1.85q-1-.82-3.12-2.42a46.21,46.21,0,0,1-3.75-3.05,11.32,11.32,0,0,1-2.3-3.05,8.85,8.85,0,0,1-.94-4.18,8.11,8.11,0,0,1,2.25-6,8.82,8.82,0,0,1,11.9.16,8.75,8.75,0,0,1,2.28,6.29v1.17a.42.42,0,0,1-.47.47h-3.47a.41.41,0,0,1-.47-.47v-1.27a5.14,5.14,0,0,0-1.08-3.4,3.5,3.5,0,0,0-2.82-1.29,3.43,3.43,0,0,0-2.68,1.15,4.65,4.65,0,0,0-1,3.22,4.91,4.91,0,0,0,1,3.17,22.3,22.3,0,0,0,4,3.45q2.82,2.11,4.25,3.43a9.8,9.8,0,0,1,2.21,2.89,8.36,8.36,0,0,1,.77,3.73,8.68,8.68,0,0,1-2.3,6.31,8.84,8.84,0,0,1-12,0Z"/><path class="cls-1" d="M576.34,176.22v-3a.41.41,0,0,1,.47-.47h11.36a.42.42,0,0,1,.47.47v3a.42.42,0,0,1-.47.47H576.81A.42.42,0,0,1,576.34,176.22Z"/><path class="cls-1" d="M598.5,165a.17.17,0,0,0,.19.19H602a.42.42,0,0,1,.47.47V168a.42.42,0,0,1-.47.47h-3.29a.17.17,0,0,0-.19.19v20a.41.41,0,0,1-.47.47h-3.52a.41.41,0,0,1-.47-.47v-20a.17.17,0,0,0-.19-.19h-1.74a.41.41,0,0,1-.47-.47v-2.35a.41.41,0,0,1,.47-.47h1.74A.17.17,0,0,0,594,165v-1.22q0-4.18,1.74-6t5.63-1.81H602a.42.42,0,0,1,.47.47l-.09,2.86a.41.41,0,0,1-.47.47h-.47a2.55,2.55,0,0,0-2.25,1,5.52,5.52,0,0,0-.71,3.12Z"/><path class="cls-1" d="M617.84,165.47a.51.51,0,0,1,.23.61l-.7,3.57q0,.42-.56.28a3.64,3.64,0,0,0-1.31-.24,5.66,5.66,0,0,0-.84.09,3.23,3.23,0,0,0-2.42,1.6,6.24,6.24,0,0,0-1,3.52v13.71a.42.42,0,0,1-.47.47h-3.57a.41.41,0,0,1-.47-.47v-23a.41.41,0,0,1,.47-.47h3.57a.42.42,0,0,1,.47.47v2.72c0,.09,0,.15.07.16s.09,0,.12-.12q1.36-3.47,4.37-3.47A3.8,3.8,0,0,1,617.84,165.47Z"/><path class="cls-1" d="M636.15,179H625.54a.17.17,0,0,0-.19.19v2.54a4.07,4.07,0,0,0,.94,2.77,3.08,3.08,0,0,0,2.44,1.08,3.19,3.19,0,0,0,2.21-.8,3.56,3.56,0,0,0,1.13-2.07.51.51,0,0,1,.52-.37l3.47.19a.43.43,0,0,1,.35.14.35.35,0,0,1,.07.33,7,7,0,0,1-2.32,4.76,9.31,9.31,0,0,1-11.17-.3,7.08,7.08,0,0,1-2.14-5.4v-9.77a7.17,7.17,0,0,1,2.14-5.4,9.07,9.07,0,0,1,11.53,0,7.22,7.22,0,0,1,2.11,5.4v6.24A.42.42,0,0,1,636.15,179Zm-9.86-9.2a4.07,4.07,0,0,0-.94,2.77V175a.17.17,0,0,0,.19.19H632a.17.17,0,0,0,.19-.19v-2.49a4.07,4.07,0,0,0-.94-2.77,3.14,3.14,0,0,0-2.49-1.08A3.08,3.08,0,0,0,626.29,169.79Z"/><path class="cls-1" d="M656.2,179H645.58a.17.17,0,0,0-.19.19v2.54a4.07,4.07,0,0,0,.94,2.77,3.08,3.08,0,0,0,2.44,1.08,3.19,3.19,0,0,0,2.21-.8,3.56,3.56,0,0,0,1.13-2.07.51.51,0,0,1,.52-.37l3.47.19a.43.43,0,0,1,.35.14.35.35,0,0,1,.07.33,7,7,0,0,1-2.32,4.76,9.31,9.31,0,0,1-11.17-.3,7.08,7.08,0,0,1-2.14-5.4v-9.77a7.17,7.17,0,0,1,2.14-5.4,9.07,9.07,0,0,1,11.53,0,7.22,7.22,0,0,1,2.11,5.4v6.24A.42.42,0,0,1,656.2,179Zm-9.86-9.2a4.07,4.07,0,0,0-.94,2.77V175a.17.17,0,0,0,.19.19H652a.17.17,0,0,0,.19-.19v-2.49a4.07,4.07,0,0,0-.94-2.77,3.14,3.14,0,0,0-2.49-1.08A3.08,3.08,0,0,0,646.34,169.79Z"/><path class="cls-1" d="M682.48,165.19h3.57a.42.42,0,0,1,.47.47v22.72q0,4.93-2.25,7.63t-7.75,2.7l-1.27,0a.47.47,0,0,1-.47-.52v-3q0-.47.52-.47,3.85.14,5.28-1.53T682,188v-1a.11.11,0,0,0-.07-.12s-.1,0-.16.07a5.32,5.32,0,0,1-4.55,2.16,5.86,5.86,0,0,1-4.76-2,8.2,8.2,0,0,1-1.67-5.42v-9.39a8.19,8.19,0,0,1,1.69-5.47,5.87,5.87,0,0,1,4.74-2,5.17,5.17,0,0,1,4.55,2.16c.06.06.12.08.16,0a.16.16,0,0,0,.07-.14v-1.22A.41.41,0,0,1,682.48,165.19Zm-1.38,18.94a4,4,0,0,0,.92-2.75v-8.83a4.14,4.14,0,0,0-.92-2.77,3,3,0,0,0-2.42-1.08,3.08,3.08,0,0,0-2.44,1.08,4.07,4.07,0,0,0-.94,2.77v8.83a4,4,0,0,0,.94,2.75,3.11,3.11,0,0,0,2.44,1.06A3,3,0,0,0,681.1,184.13Z"/><path class="cls-1" d="M706.43,179H695.82a.17.17,0,0,0-.19.19v2.54a4.07,4.07,0,0,0,.94,2.77,3.08,3.08,0,0,0,2.44,1.08,3.19,3.19,0,0,0,2.21-.8,3.56,3.56,0,0,0,1.13-2.07.51.51,0,0,1,.52-.37l3.47.19a.43.43,0,0,1,.35.14.35.35,0,0,1,.07.33,7,7,0,0,1-2.32,4.76,9.31,9.31,0,0,1-11.17-.3,7.08,7.08,0,0,1-2.14-5.4v-9.77a7.17,7.17,0,0,1,2.14-5.4,9.07,9.07,0,0,1,11.53,0,7.22,7.22,0,0,1,2.11,5.4v6.24A.42.42,0,0,1,706.43,179Zm-9.86-9.2a4.07,4.07,0,0,0-.94,2.77V175a.17.17,0,0,0,.19.19h6.43a.17.17,0,0,0,.19-.19v-2.49a4.07,4.07,0,0,0-.94-2.77,3.14,3.14,0,0,0-2.49-1.08A3.08,3.08,0,0,0,696.57,169.79Z"/><path class="cls-1" d="M725.65,166.86a9,9,0,0,1,1.57,5.66v16.1a.42.42,0,0,1-.47.47h-3.57a.41.41,0,0,1-.47-.47V172.89a4.85,4.85,0,0,0-.84-3.05,2.82,2.82,0,0,0-2.35-1.08,3,3,0,0,0-2.42,1.06,5,5,0,0,0-1,3c0,.19,0,.28,0,.28v15.54a.42.42,0,0,1-.47.47h-3.57a.41.41,0,0,1-.47-.47v-23a.41.41,0,0,1,.47-.47h3.57a.42.42,0,0,1,.47.47v1.27a.11.11,0,0,0,.09.12c.06,0,.13,0,.19-.12a5.78,5.78,0,0,1,4.74-2.07A5.43,5.43,0,0,1,725.65,166.86Z"/><path class="cls-1" d="M747.22,179H736.61a.17.17,0,0,0-.19.19v2.54a4.07,4.07,0,0,0,.94,2.77,3.08,3.08,0,0,0,2.44,1.08,3.19,3.19,0,0,0,2.21-.8,3.56,3.56,0,0,0,1.13-2.07.51.51,0,0,1,.52-.37l3.47.19a.43.43,0,0,1,.35.14.35.35,0,0,1,.07.33,7,7,0,0,1-2.32,4.76,9.31,9.31,0,0,1-11.17-.3,7.08,7.08,0,0,1-2.14-5.4v-9.77a7.17,7.17,0,0,1,2.14-5.4,9.07,9.07,0,0,1,11.53,0,7.22,7.22,0,0,1,2.11,5.4v6.24A.42.42,0,0,1,747.22,179Zm-9.86-9.2a4.07,4.07,0,0,0-.94,2.77V175a.17.17,0,0,0,.19.19H743a.17.17,0,0,0,.19-.19v-2.49a4.07,4.07,0,0,0-.94-2.77,3.14,3.14,0,0,0-2.49-1.08A3.08,3.08,0,0,0,737.36,169.79Z"/><path class="cls-1" d="M763.46,165.47a.51.51,0,0,1,.23.61l-.7,3.57q0,.42-.56.28a3.64,3.64,0,0,0-1.31-.24,5.66,5.66,0,0,0-.84.09,3.23,3.23,0,0,0-2.42,1.6,6.24,6.24,0,0,0-1,3.52v13.71a.42.42,0,0,1-.47.47h-3.57a.41.41,0,0,1-.47-.47v-23a.41.41,0,0,1,.47-.47h3.57a.42.42,0,0,1,.47.47v2.72c0,.09,0,.15.07.16s.09,0,.12-.12q1.36-3.47,4.37-3.47A3.8,3.8,0,0,1,763.46,165.47Z"/><path class="cls-1" d="M780.29,167a7.63,7.63,0,0,1,2.18,5.68v16a.42.42,0,0,1-.47.47h-3.57a.41.41,0,0,1-.47-.47v-1a.16.16,0,0,0-.07-.14s-.1,0-.17,0a5.93,5.93,0,0,1-4.83,2,7.67,7.67,0,0,1-4.72-1.53q-2-1.52-2-5.42,0-4.08,2.46-6a10.28,10.28,0,0,1,6.46-1.9h2.72a.17.17,0,0,0,.19-.19v-1.36a5,5,0,0,0-.94-3.17,3,3,0,0,0-2.44-1.2,2.68,2.68,0,0,0-2,.8,3.34,3.34,0,0,0-.94,2.07.42.42,0,0,1-.47.47h-3.8a.41.41,0,0,1-.47-.47,6.92,6.92,0,0,1,2.39-4.88,7.87,7.87,0,0,1,5.35-1.88A7.64,7.64,0,0,1,780.29,167Zm-3.54,17.51a3.61,3.61,0,0,0,1.22-2.91v-3.19a.17.17,0,0,0-.19-.19h-2.86a4.34,4.34,0,0,0-3,1,3.74,3.74,0,0,0-1.13,2.93,3.44,3.44,0,0,0,.84,2.54,3,3,0,0,0,2.25.84A4.3,4.3,0,0,0,776.75,184.48Z"/><path class="cls-1" d="M796.28,168.47H793a.17.17,0,0,0-.19.19v13.19a3.93,3.93,0,0,0,.66,2.61,2.53,2.53,0,0,0,2.07.68H796a.42.42,0,0,1,.47.47v3a.42.42,0,0,1-.47.47h-1.46a7.34,7.34,0,0,1-4.53-1.17q-1.53-1.17-1.53-4.46V168.66a.17.17,0,0,0-.19-.19h-1.83A.41.41,0,0,1,786,168v-2.35a.41.41,0,0,1,.47-.47h1.83a.17.17,0,0,0,.19-.19v-5.3a.42.42,0,0,1,.47-.47h3.43a.42.42,0,0,1,.47.47V165a.17.17,0,0,0,.19.19h3.29a.41.41,0,0,1,.47.47V168A.41.41,0,0,1,796.28,168.47Z"/><path class="cls-1" d="M801.11,160.59a3,3,0,0,1,2.16-5.16,2.83,2.83,0,0,1,3,3,3.05,3.05,0,0,1-5.16,2.16Zm0,28v-23a.41.41,0,0,1,.47-.47h3.57a.42.42,0,0,1,.47.47v23a.42.42,0,0,1-.47.47h-3.57A.41.41,0,0,1,801.07,188.62Z"/><path class="cls-1" d="M812.92,187.42a7.15,7.15,0,0,1-2.14-5.42v-9.72a7.13,7.13,0,0,1,2.16-5.4,9.17,9.17,0,0,1,11.6,0,7.13,7.13,0,0,1,2.16,5.4V182a7.11,7.11,0,0,1-2.16,5.42,8.13,8.13,0,0,1-5.82,2A8,8,0,0,1,812.92,187.42Zm8.29-3a3.93,3.93,0,0,0,1-2.79v-9.11a4,4,0,0,0-1-2.77,3.23,3.23,0,0,0-2.49-1.08,3.15,3.15,0,0,0-2.46,1.08,4,4,0,0,0-1,2.77v9.11a4,4,0,0,0,1,2.79,3.18,3.18,0,0,0,2.46,1.06A3.26,3.26,0,0,0,821.21,184.46Z"/><path class="cls-1" d="M845.64,166.86a9,9,0,0,1,1.57,5.66v16.1a.42.42,0,0,1-.47.47h-3.57a.41.41,0,0,1-.47-.47V172.89a4.85,4.85,0,0,0-.84-3.05,2.82,2.82,0,0,0-2.35-1.08,3,3,0,0,0-2.42,1.06,5,5,0,0,0-1,3c0,.19,0,.28,0,.28v15.54a.42.42,0,0,1-.47.47h-3.57a.41.41,0,0,1-.47-.47v-23a.41.41,0,0,1,.47-.47h3.57a.42.42,0,0,1,.47.47v1.27a.11.11,0,0,0,.09.12c.06,0,.13,0,.19-.12a5.78,5.78,0,0,1,4.74-2.07A5.43,5.43,0,0,1,845.64,166.86Z"/><path class="cls-2" d="M270.27,34.09a.73.73,0,0,1-.54.22H256.51a.28.28,0,0,0-.32.32v10a.28.28,0,0,0,.32.32h7.59a.76.76,0,0,1,.76.76v6.14a.76.76,0,0,1-.76.76h-7.59a.28.28,0,0,0-.32.32V63a.28.28,0,0,0,.32.32h13.22a.76.76,0,0,1,.76.76v6.14a.76.76,0,0,1-.76.76H248a.76.76,0,0,1-.76-.76V27.41a.76.76,0,0,1,.76-.76h21.7a.76.76,0,0,1,.76.76v6.14A.73.73,0,0,1,270.27,34.09Z"/><path class="cls-2" d="M275.52,70.72a.73.73,0,0,1-.22-.54V27.41a.76.76,0,0,1,.76-.76h7.4a.75.75,0,0,1,.76.76V70.18a.76.76,0,0,1-.76.76h-7.4A.73.73,0,0,1,275.52,70.72Z"/><path class="cls-2" d="M290.65,33.33a4.85,4.85,0,0,1-1.42-3.57,4.77,4.77,0,0,1,5-5,4.78,4.78,0,0,1,3.57,1.39,4.94,4.94,0,0,1,1.36,3.61,4.91,4.91,0,0,1-1.39,3.57,4.75,4.75,0,0,1-3.54,1.42A4.85,4.85,0,0,1,290.65,33.33Zm-.57,37.4a.73.73,0,0,1-.22-.54v-31a.76.76,0,0,1,.76-.76H298a.76.76,0,0,1,.76.76v31a.76.76,0,0,1-.76.76h-7.4A.73.73,0,0,1,290.08,70.72Z"/><path class="cls-2" d="M303.49,70.72a.73.73,0,0,1-.22-.54V63.35a1.88,1.88,0,0,1,.25-.95l9.87-15.57q.19-.38-.19-.38h-8.79a.76.76,0,0,1-.76-.76V39.18a.76.76,0,0,1,.76-.76h19a.76.76,0,0,1,.76.76V46a1.89,1.89,0,0,1-.25.95L313.71,62.47c-.13.25-.06.38.19.38h9.93a.76.76,0,0,1,.76.76v6.58a.76.76,0,0,1-.76.76H304A.73.73,0,0,1,303.49,70.72Z"/><path class="cls-2" d="M349.58,40.82a9.65,9.65,0,0,1,3.35,7.66v21.7a.76.76,0,0,1-.76.76h-7.4a.76.76,0,0,1-.76-.76V68.79a.26.26,0,0,0-.13-.25c-.08,0-.17,0-.25.13q-2.09,2.66-6.45,2.78a10.27,10.27,0,0,1-6.36-2q-2.69-2-2.69-7.72,0-5.88,3.26-8.1t9.4-2.21h2.91a.28.28,0,0,0,.32-.32V49.49a4.27,4.27,0,0,0-.92-2.82,2.88,2.88,0,0,0-2.31-1.11,2.57,2.57,0,0,0-1.8.66,3.08,3.08,0,0,0-.92,1.87.74.74,0,0,1-.82.76l-7.59-.06a.67.67,0,0,1-.76-.76,10.07,10.07,0,0,1,3.61-7.37,12.57,12.57,0,0,1,8.35-2.75A12.85,12.85,0,0,1,349.58,40.82Zm-6.74,22.75A3.25,3.25,0,0,0,344,60.95V58a.28.28,0,0,0-.32-.32h-2.59a3.86,3.86,0,0,0-2.75,1,3.52,3.52,0,0,0-1,2.69,3.34,3.34,0,0,0,.79,2.4,2.8,2.8,0,0,0,2.12.82A4,4,0,0,0,342.85,63.57Z"/><path class="cls-2" d="M379.8,40.67Q382,43.42,382,48.54V60.82q0,5-2.21,7.81a7.86,7.86,0,0,1-6.58,2.82,7.27,7.27,0,0,1-5.69-2.4.26.26,0,0,0-.25-.09c-.08,0-.13.09-.13.22v1a.76.76,0,0,1-.76.76H359a.76.76,0,0,1-.76-.76V27.41a.76.76,0,0,1,.76-.76h7.4a.76.76,0,0,1,.76.76V40.26a.11.11,0,0,0,.13.13.68.68,0,0,0,.51-.32,7.38,7.38,0,0,1,5.44-2.15A8,8,0,0,1,379.8,40.67Zm-7.5,5.92a2.64,2.64,0,0,0-2.15-1,2.79,2.79,0,0,0-2,.76,3.33,3.33,0,0,0-1,2V61a3.33,3.33,0,0,0,1,2,2.79,2.79,0,0,0,2,.76,2.64,2.64,0,0,0,2.15-1,4,4,0,0,0,.82-2.59v-11A4,4,0,0,0,372.3,46.58Z"/><path class="cls-2" d="M410.61,57.24a.73.73,0,0,1-.54.22H396.16a.28.28,0,0,0-.32.32v2.34a4,4,0,0,0,.85,2.63,2.7,2.7,0,0,0,2.18,1,2.6,2.6,0,0,0,2-.79,4,4,0,0,0,1-2,.79.79,0,0,1,.82-.63l7.28.38a.73.73,0,0,1,.54.22.65.65,0,0,1,.16.6A10.45,10.45,0,0,1,407.26,69q-2.94,2.5-8.38,2.5-5.63,0-8.8-2.82a9.92,9.92,0,0,1-3.16-7.81V48.54a9.94,9.94,0,0,1,3.2-7.72q3.19-2.91,8.76-2.91t8.76,2.91a10,10,0,0,1,3.2,7.72v8.16A.73.73,0,0,1,410.61,57.24ZM396.69,46.58a3.89,3.89,0,0,0-.85,2.59v2.47a.28.28,0,0,0,.32.32h5.44a.28.28,0,0,0,.32-.32V49.18a3.89,3.89,0,0,0-.85-2.59,2.86,2.86,0,0,0-4.37,0Z"/><path class="cls-2" d="M430.29,44.46a.73.73,0,0,1-.54.22h-3.54a.28.28,0,0,0-.32.32V60.06a3.55,3.55,0,0,0,.7,2.53,2.65,2.65,0,0,0,2.09.63h.44a.76.76,0,0,1,.76.76v6.2a.76.76,0,0,1-.76.76h-2.53q-4.62,0-7-1.55t-2.34-5.92V45a.28.28,0,0,0-.32-.32h-2.09a.76.76,0,0,1-.76-.76V39.18a.76.76,0,0,1,.76-.76H417a.28.28,0,0,0,.32-.32v-7a.76.76,0,0,1,.76-.76h7.09a.76.76,0,0,1,.76.76v7a.28.28,0,0,0,.32.32h3.54a.76.76,0,0,1,.76.76v4.75A.73.73,0,0,1,430.29,44.46Z"/><path class="cls-2" d="M456.65,40.76q2.15,2.85,2.15,8V70.18a.76.76,0,0,1-.76.76h-7.4a.76.76,0,0,1-.76-.76V49.43a4.82,4.82,0,0,0-.73-2.85,2.45,2.45,0,0,0-2.12-1,2.65,2.65,0,0,0-2.25,1,4.78,4.78,0,0,0-.79,2.94V70.18a.76.76,0,0,1-.76.76h-7.4a.76.76,0,0,1-.76-.76V27.41a.76.76,0,0,1,.76-.76h7.4a.76.76,0,0,1,.76.76v13q0,.19.16.19a.69.69,0,0,0,.41-.25,7,7,0,0,1,5.63-2.4A7.58,7.58,0,0,1,456.65,40.76Z"/><path class="cls-2" d="M481.1,68.19a11.4,11.4,0,0,1-3.45-8.7V38.1a11.4,11.4,0,0,1,3.45-8.7,14.45,14.45,0,0,1,18.32,0,11.46,11.46,0,0,1,3.48,8.73v2.4a.76.76,0,0,1-.76.76h-7.4a.76.76,0,0,1-.76-.76V38A4.53,4.53,0,0,0,493,35a3.42,3.42,0,0,0-2.72-1.17A3.34,3.34,0,0,0,487.59,35a4.52,4.52,0,0,0-1,3.07V59.55a4.52,4.52,0,0,0,1,3.07,3.34,3.34,0,0,0,2.66,1.17A3.41,3.41,0,0,0,493,62.62a4.52,4.52,0,0,0,1-3.07V54.49a.28.28,0,0,0-.32-.32h-2.78a.76.76,0,0,1-.76-.76V47.79a.76.76,0,0,1,.76-.76h11.26a.76.76,0,0,1,.76.76V59.49a11.35,11.35,0,0,1-3.48,8.7,14.5,14.5,0,0,1-18.32,0Z"/><path class="cls-2" d="M508.37,70.72a.73.73,0,0,1-.22-.54V27.41a.76.76,0,0,1,.76-.76h7.4a.76.76,0,0,1,.76.76V70.18a.76.76,0,0,1-.76.76h-7.4A.73.73,0,0,1,508.37,70.72Z"/><path class="cls-2" d="M543.08,40.82a9.65,9.65,0,0,1,3.35,7.66v21.7a.76.76,0,0,1-.76.76h-7.4a.76.76,0,0,1-.76-.76V68.79a.26.26,0,0,0-.13-.25c-.08,0-.17,0-.25.13q-2.09,2.66-6.45,2.78a10.27,10.27,0,0,1-6.36-2q-2.69-2-2.69-7.72,0-5.88,3.26-8.1t9.4-2.21h2.91a.28.28,0,0,0,.32-.32V49.49a4.27,4.27,0,0,0-.92-2.82,2.88,2.88,0,0,0-2.31-1.11,2.57,2.57,0,0,0-1.8.66,3.08,3.08,0,0,0-.92,1.87.74.74,0,0,1-.82.76l-7.59-.06a.67.67,0,0,1-.76-.76A10.07,10.07,0,0,1,526,40.67a12.57,12.57,0,0,1,8.35-2.75A12.85,12.85,0,0,1,543.08,40.82Zm-6.74,22.75a3.25,3.25,0,0,0,1.17-2.63V58a.28.28,0,0,0-.32-.32H534.6a3.86,3.86,0,0,0-2.75,1,3.52,3.52,0,0,0-1,2.69,3.34,3.34,0,0,0,.79,2.4,2.8,2.8,0,0,0,2.12.82A4,4,0,0,0,536.34,63.57Z"/><path class="cls-2" d="M554.06,68.82a8.35,8.35,0,0,1-3.2-6.87v-.44a.76.76,0,0,1,.76-.76h7a.76.76,0,0,1,.76.76v.19a2.81,2.81,0,0,0,.95,2.18,3.37,3.37,0,0,0,2.34.85,2.69,2.69,0,0,0,2-.73,2.53,2.53,0,0,0,.73-1.87,2.48,2.48,0,0,0-1.2-2.18,12.83,12.83,0,0,0-2.69-1.33l-2.06-.73a16.66,16.66,0,0,1-5.85-3.51,8.5,8.5,0,0,1-2.37-6.49,9.17,9.17,0,0,1,3-7.28,13.75,13.75,0,0,1,16.42.13,9.66,9.66,0,0,1,3.07,7.53.76.76,0,0,1-.76.76h-6.77a.76.76,0,0,1-.76-.76v-.51a2.71,2.71,0,0,0-2.85-2.85,2.65,2.65,0,0,0-2.09.85,2.9,2.9,0,0,0-.76,2,2.69,2.69,0,0,0,1.3,2.37A21.39,21.39,0,0,0,565,52a37,37,0,0,1,4.65,2.06,9.88,9.88,0,0,1,3.32,3,8.07,8.07,0,0,1,1.39,4.84,8.42,8.42,0,0,1-3.2,6.93,13.2,13.2,0,0,1-8.51,2.56Q557.25,71.39,554.06,68.82Z"/><path class="cls-2" d="M602,57.24a.73.73,0,0,1-.54.22H587.56a.28.28,0,0,0-.32.32v2.34a4,4,0,0,0,.85,2.63,2.7,2.7,0,0,0,2.18,1,2.6,2.6,0,0,0,2-.79,4,4,0,0,0,1-2,.79.79,0,0,1,.82-.63l7.28.38a.73.73,0,0,1,.54.22.65.65,0,0,1,.16.6A10.45,10.45,0,0,1,598.66,69q-2.94,2.5-8.38,2.5-5.63,0-8.8-2.82a9.92,9.92,0,0,1-3.16-7.81V48.54a9.94,9.94,0,0,1,3.2-7.72q3.19-2.91,8.76-2.91T599,40.82a10,10,0,0,1,3.2,7.72v8.16A.73.73,0,0,1,602,57.24ZM588.1,46.58a3.89,3.89,0,0,0-.85,2.59v2.47a.28.28,0,0,0,.32.32H593a.28.28,0,0,0,.32-.32V49.18a3.89,3.89,0,0,0-.85-2.59,2.86,2.86,0,0,0-4.37,0Z"/><path class="cls-2" d="M624.51,38.67a.83.83,0,0,1,.38.95l-1.2,7.4q-.06.7-.89.51a5,5,0,0,0-1.71-.25,4.81,4.81,0,0,0-1.64.25,3.36,3.36,0,0,0-2.34,1.74,6.61,6.61,0,0,0-.89,3.45v17.4a.76.76,0,0,1-.76.76h-7.4a.76.76,0,0,1-.76-.76V39.18a.76.76,0,0,1,.76-.76h7.4a.76.76,0,0,1,.76.76v2.47c0,.17,0,.26.09.28s.14,0,.22-.16Q618.25,38,621.85,38A4.77,4.77,0,0,1,624.51,38.67Z"/><path class="cls-2" d="M267,87.37a11.34,11.34,0,0,1,4.21,4.78,15.85,15.85,0,0,1,1.49,7q0,5.89-3.16,9.43a10.58,10.58,0,0,1-8.29,3.54h-4.75a.28.28,0,0,0-.32.32v16.83a.76.76,0,0,1-.76.76H248a.76.76,0,0,1-.76-.76V86.42a.76.76,0,0,1,.76-.76h12.78A11.42,11.42,0,0,1,267,87.37Zm-4.46,16.23a6.68,6.68,0,0,0,1.23-4.27A6.94,6.94,0,0,0,262.49,95a3.93,3.93,0,0,0-3.26-1.58h-2.78a.28.28,0,0,0-.32.32v11.14a.28.28,0,0,0,.32.32h2.78A4,4,0,0,0,262.49,103.6Z"/><path class="cls-2" d="M300.52,116.32a.73.73,0,0,1-.54.22H286.06a.28.28,0,0,0-.32.32v2.34a4,4,0,0,0,.85,2.63,2.7,2.7,0,0,0,2.18,1,2.6,2.6,0,0,0,2-.79,4,4,0,0,0,1-2,.79.79,0,0,1,.82-.63l7.28.38a.73.73,0,0,1,.54.22.65.65,0,0,1,.16.6,10.45,10.45,0,0,1-3.38,7.37q-2.94,2.5-8.38,2.5-5.63,0-8.8-2.82a9.92,9.92,0,0,1-3.16-7.81V107.62A9.94,9.94,0,0,1,280,99.9Q283.21,97,288.78,97t8.76,2.91a10,10,0,0,1,3.2,7.72v8.16A.73.73,0,0,1,300.52,116.32ZM286.6,105.65a3.89,3.89,0,0,0-.85,2.59v2.47a.28.28,0,0,0,.32.32h5.44a.28.28,0,0,0,.32-.32v-2.47a3.89,3.89,0,0,0-.85-2.59,2.86,2.86,0,0,0-4.37,0Z"/><path class="cls-2" d="M320.45,85.94a.73.73,0,0,1,.54-.22h7.4a.76.76,0,0,1,.76.76v42.77a.76.76,0,0,1-.76.76H321a.76.76,0,0,1-.76-.76v-1c0-.13,0-.2-.13-.22a.26.26,0,0,0-.25.09,7.27,7.27,0,0,1-5.69,2.41,7.86,7.86,0,0,1-6.58-2.82q-2.21-2.82-2.21-7.81V107.62q0-5.13,2.25-7.88A8,8,0,0,1,314.15,97a8.72,8.72,0,0,1,2.91.54,6.88,6.88,0,0,1,2.78,1.93.26.26,0,0,0,.25.1c.08,0,.13-.1.13-.22V86.48A.73.73,0,0,1,320.45,85.94Zm-1.23,36.16a3.33,3.33,0,0,0,1-2V107.43a3.33,3.33,0,0,0-1-2,2.79,2.79,0,0,0-2-.76,2.64,2.64,0,0,0-2.15,1,4,4,0,0,0-.82,2.59v11a4,4,0,0,0,.82,2.59,2.64,2.64,0,0,0,2.15,1A2.79,2.79,0,0,0,319.21,122.11Z"/><path class="cls-2" d="M335.82,92.4a5,5,0,0,1,3.58-8.57A4.78,4.78,0,0,1,343,85.22a5.37,5.37,0,0,1,0,7.18,4.75,4.75,0,0,1-3.54,1.42A4.85,4.85,0,0,1,335.82,92.4Zm-.57,37.4a.73.73,0,0,1-.22-.54v-31a.76.76,0,0,1,.76-.76h7.4a.76.76,0,0,1,.76.76v31a.76.76,0,0,1-.76.76h-7.4A.73.73,0,0,1,335.25,129.79Z"/><path class="cls-2" d="M370.21,99.9a9.65,9.65,0,0,1,3.35,7.66v21.7a.76.76,0,0,1-.76.76h-7.4a.76.76,0,0,1-.76-.76v-1.39a.25.25,0,0,0-.13-.25c-.08,0-.17,0-.25.13q-2.09,2.66-6.45,2.79a10.27,10.27,0,0,1-6.36-2q-2.69-2-2.69-7.72,0-5.88,3.26-8.1t9.4-2.21h2.91a.28.28,0,0,0,.32-.32v-1.58a4.27,4.27,0,0,0-.92-2.82,2.88,2.88,0,0,0-2.31-1.11,2.57,2.57,0,0,0-1.8.66,3.08,3.08,0,0,0-.92,1.87.74.74,0,0,1-.82.76l-7.59-.06a.67.67,0,0,1-.76-.76,10.07,10.07,0,0,1,3.61-7.37A12.57,12.57,0,0,1,361.48,97,12.85,12.85,0,0,1,370.21,99.9Zm-6.74,22.75a3.25,3.25,0,0,0,1.17-2.63v-3a.28.28,0,0,0-.32-.32h-2.59a3.86,3.86,0,0,0-2.75,1,3.52,3.52,0,0,0-1,2.69,3.33,3.33,0,0,0,.79,2.4,2.8,2.8,0,0,0,2.12.82A4,4,0,0,0,363.47,122.64Z"/><path class="cls-2" d="M393.47,103.53a.73.73,0,0,1-.54.22h-3.54a.28.28,0,0,0-.32.32v15.06a3.55,3.55,0,0,0,.7,2.53,2.65,2.65,0,0,0,2.09.63h.44a.76.76,0,0,1,.76.76v6.2a.76.76,0,0,1-.76.76h-2.53q-4.62,0-7-1.55t-2.34-5.92V104.07a.28.28,0,0,0-.32-.32h-2.09a.76.76,0,0,1-.76-.76V98.25a.76.76,0,0,1,.76-.76h2.09a.28.28,0,0,0,.32-.32v-7a.76.76,0,0,1,.76-.76h7.09a.76.76,0,0,1,.76.76v7a.28.28,0,0,0,.32.32h3.54a.76.76,0,0,1,.76.76V103A.73.73,0,0,1,393.47,103.53Z"/><path class="cls-2" d="M415.45,97.74a.83.83,0,0,1,.38.95l-1.2,7.4q-.06.7-.89.51a5,5,0,0,0-1.71-.25,4.81,4.81,0,0,0-1.64.25,3.36,3.36,0,0,0-2.34,1.74,6.61,6.61,0,0,0-.89,3.45v17.4a.76.76,0,0,1-.76.76H399a.76.76,0,0,1-.76-.76V98.25a.76.76,0,0,1,.76-.76h7.4a.76.76,0,0,1,.76.76v2.47c0,.17,0,.26.09.28s.14,0,.22-.16q1.71-3.73,5.32-3.73A4.77,4.77,0,0,1,415.45,97.74Z"/><path class="cls-2" d="M420.61,92.4a5,5,0,0,1,3.58-8.57,4.78,4.78,0,0,1,3.57,1.39,5.37,5.37,0,0,1,0,7.18,4.75,4.75,0,0,1-3.54,1.42A4.85,4.85,0,0,1,420.61,92.4Zm-.57,37.4a.73.73,0,0,1-.22-.54v-31a.76.76,0,0,1,.76-.76H428a.76.76,0,0,1,.76.76v31a.76.76,0,0,1-.76.76h-7.4A.73.73,0,0,1,420,129.79Z"/><path class="cls-2" d="M437.25,127.67a9.89,9.89,0,0,1-3.2-7.78V107.62a9.94,9.94,0,0,1,3.2-7.72Q440.45,97,446,97t8.76,2.85a9.46,9.46,0,0,1,3.2,7.4v1.14a.76.76,0,0,1-.76.76l-7.4.32a.67.67,0,0,1-.76-.76v-.76a3.37,3.37,0,0,0-.85-2.34,2.8,2.8,0,0,0-2.18-.95,2.71,2.71,0,0,0-2.21,1,4.08,4.08,0,0,0-.82,2.66V119.2a4.08,4.08,0,0,0,.82,2.66,2.7,2.7,0,0,0,2.21,1,2.76,2.76,0,0,0,2.18-1,3.4,3.4,0,0,0,.85-2.31v-.82a.76.76,0,0,1,.76-.76l7.4.06a.76.76,0,0,1,.76.76v1.46a9.41,9.41,0,0,1-3.2,7.47q-3.2,2.79-8.76,2.79T437.25,127.67Z"/><path class="cls-2" d="M494.67,129.32l-1-6.07c0-.21-.13-.32-.38-.32h-8q-.38,0-.38.32l-1,6.07a.71.71,0,0,1-.82.7h-7.4q-.82,0-.63-.82l9.3-42.77a.76.76,0,0,1,.82-.7h8.54a.76.76,0,0,1,.82.7l9.24,42.77.06.25q0,.57-.7.57h-7.59A.71.71,0,0,1,494.67,129.32ZM486.38,116h5.69c.21,0,.29-.1.25-.32l-3-17.27c0-.13-.11-.19-.19-.19s-.15.06-.19.19l-2.85,17.27C486.13,115.93,486.21,116,486.38,116Z"/><path class="cls-2" d="M508.56,129.79a.73.73,0,0,1-.22-.54V86.48a.76.76,0,0,1,.76-.76h7.4a.76.76,0,0,1,.76.76v42.77a.76.76,0,0,1-.76.76h-7.4A.73.73,0,0,1,508.56,129.79Z"/><path class="cls-2" d="M524.06,129.79a.73.73,0,0,1-.22-.54V86.48a.76.76,0,0,1,.76-.76h11.45a12.76,12.76,0,0,1,9.24,3.35A11.82,11.82,0,0,1,548.77,98v19.74a11.82,11.82,0,0,1-3.48,8.92,12.75,12.75,0,0,1-9.24,3.35H524.6A.73.73,0,0,1,524.06,129.79Zm9-7.43,2.85-.06a3.54,3.54,0,0,0,2.78-1.46,6.14,6.14,0,0,0,1.14-3.67V98.57a6.06,6.06,0,0,0-1.08-3.8,3.49,3.49,0,0,0-2.91-1.39h-2.78a.28.28,0,0,0-.32.32V122A.28.28,0,0,0,533.08,122.36Z"/><path class="cls-2" d="M559.85,129.07a10.43,10.43,0,0,1-4.3-4.08,11.85,11.85,0,0,1-1.52-6v-1.83a.76.76,0,0,1,.76-.76h7.28a.76.76,0,0,1,.76.76v1.39a4.74,4.74,0,0,0,1,3.16,3.17,3.17,0,0,0,2.53,1.2,3.25,3.25,0,0,0,2.53-1.14,4.31,4.31,0,0,0,1-3,4.62,4.62,0,0,0-1.27-3.26,37.89,37.89,0,0,0-4.94-4,60.43,60.43,0,0,1-5.12-4,16,16,0,0,1-3.35-4.37,12.51,12.51,0,0,1-1.39-6,11.39,11.39,0,0,1,3.35-8.61,13.7,13.7,0,0,1,17.81.13,11.84,11.84,0,0,1,3.38,8.8v1.52a.76.76,0,0,1-.76.76h-7.28a.76.76,0,0,1-.76-.76V97.18a4.72,4.72,0,0,0-1-3.13A3.19,3.19,0,0,0,566,92.87,3.1,3.1,0,0,0,563.58,94a4.57,4.57,0,0,0-.95,3.07,5.11,5.11,0,0,0,1.2,3.35,28.59,28.59,0,0,0,4.75,4q3.92,2.91,5.92,4.71a13.79,13.79,0,0,1,3.1,4,11.42,11.42,0,0,1,1.11,5.22,11.73,11.73,0,0,1-3.42,8.86,12.41,12.41,0,0,1-9,3.29A13.74,13.74,0,0,1,559.85,129.07Z"/><path class="cls-2" d="M620.49,93.16a.73.73,0,0,1-.54.22H606.79a.28.28,0,0,0-.32.32v10a.28.28,0,0,0,.32.32h7.53a.76.76,0,0,1,.76.76v6.14a.76.76,0,0,1-.76.76h-7.53a.28.28,0,0,0-.32.32v17.27a.76.76,0,0,1-.76.76h-7.4a.76.76,0,0,1-.76-.76V86.48a.76.76,0,0,1,.76-.76H620a.75.75,0,0,1,.76.76v6.14A.73.73,0,0,1,620.49,93.16Z"/><path class="cls-2" d="M625.37,127.67a9.89,9.89,0,0,1-3.2-7.78V107.62a9.89,9.89,0,0,1,3.23-7.72Q628.62,97,634.19,97t8.86,2.91a9.89,9.89,0,0,1,3.23,7.72v12.28a9.89,9.89,0,0,1-3.2,7.78q-3.2,2.85-8.89,2.85T625.37,127.67Zm11.1-5.88a3.8,3.8,0,0,0,.89-2.59V108.25a3.8,3.8,0,0,0-.89-2.59,2.89,2.89,0,0,0-2.28-1,2.8,2.8,0,0,0-2.25,1,3.89,3.89,0,0,0-.85,2.59V119.2a3.88,3.88,0,0,0,.85,2.59,2.79,2.79,0,0,0,2.25,1A2.89,2.89,0,0,0,636.47,121.79Z"/><path class="cls-2" d="M666.3,97.71a.73.73,0,0,1,.54-.22h7.4a.76.76,0,0,1,.76.76v31a.76.76,0,0,1-.76.76h-7.4a.76.76,0,0,1-.76-.76v-1.08a.26.26,0,0,0-.13-.25c-.08,0-.17,0-.25.13a5.08,5.08,0,0,1-2.37,1.87,9.4,9.4,0,0,1-3.32.54,8.8,8.8,0,0,1-6.26-2.31q-2.47-2.31-2.47-7.12V98.25a.76.76,0,0,1,.76-.76h7.4a.76.76,0,0,1,.76.76v20.82a4.66,4.66,0,0,0,.73,2.82,2.47,2.47,0,0,0,2.12,1,2.64,2.64,0,0,0,2.21-1.08,4.68,4.68,0,0,0,.82-2.91V98.25A.73.73,0,0,1,666.3,97.71Z"/><path class="cls-2" d="M702.34,99.83q2.15,2.85,2.15,8v21.45a.76.76,0,0,1-.76.76h-7.4a.76.76,0,0,1-.76-.76V108.5a4.82,4.82,0,0,0-.73-2.85,2.45,2.45,0,0,0-2.12-1,2.65,2.65,0,0,0-2.25,1,4.78,4.78,0,0,0-.79,2.94v20.63a.76.76,0,0,1-.76.76h-7.4a.76.76,0,0,1-.76-.76v-31a.76.76,0,0,1,.76-.76h7.4a.76.76,0,0,1,.76.76v1.2q0,.19.16.19a.69.69,0,0,0,.41-.25,7,7,0,0,1,5.63-2.4A7.58,7.58,0,0,1,702.34,99.83Z"/><path class="cls-2" d="M724.64,85.94a.73.73,0,0,1,.54-.22h7.4a.76.76,0,0,1,.76.76v42.77a.76.76,0,0,1-.76.76h-7.4a.76.76,0,0,1-.76-.76v-1c0-.13,0-.2-.13-.22a.26.26,0,0,0-.25.09,7.27,7.27,0,0,1-5.69,2.41,7.86,7.86,0,0,1-6.58-2.82q-2.21-2.82-2.21-7.81V107.62q0-5.13,2.25-7.88A8,8,0,0,1,718.35,97a8.72,8.72,0,0,1,2.91.54A6.88,6.88,0,0,1,724,99.45a.26.26,0,0,0,.25.1c.08,0,.13-.1.13-.22V86.48A.73.73,0,0,1,724.64,85.94Zm-1.23,36.16a3.33,3.33,0,0,0,1-2V107.43a3.33,3.33,0,0,0-1-2,2.79,2.79,0,0,0-2-.76,2.64,2.64,0,0,0-2.15,1,4,4,0,0,0-.82,2.59v11a4,4,0,0,0,.82,2.59,2.64,2.64,0,0,0,2.15,1A2.79,2.79,0,0,0,723.41,122.11Z"/><path class="cls-2" d="M759.6,99.9a9.65,9.65,0,0,1,3.35,7.66v21.7a.76.76,0,0,1-.76.76h-7.4a.76.76,0,0,1-.76-.76v-1.39a.25.25,0,0,0-.13-.25c-.08,0-.17,0-.25.13q-2.09,2.66-6.45,2.79a10.27,10.27,0,0,1-6.36-2q-2.69-2-2.69-7.72,0-5.88,3.26-8.1t9.4-2.21h2.91a.28.28,0,0,0,.32-.32v-1.58a4.27,4.27,0,0,0-.92-2.82,2.88,2.88,0,0,0-2.31-1.11,2.57,2.57,0,0,0-1.8.66,3.08,3.08,0,0,0-.92,1.87.74.74,0,0,1-.82.76l-7.59-.06a.67.67,0,0,1-.76-.76,10.07,10.07,0,0,1,3.61-7.37A12.57,12.57,0,0,1,750.87,97,12.85,12.85,0,0,1,759.6,99.9Zm-6.74,22.75A3.25,3.25,0,0,0,754,120v-3a.28.28,0,0,0-.32-.32h-2.59a3.86,3.86,0,0,0-2.75,1,3.52,3.52,0,0,0-1,2.69,3.33,3.33,0,0,0,.79,2.4,2.8,2.8,0,0,0,2.12.82A4,4,0,0,0,752.86,122.64Z"/><path class="cls-2" d="M782.85,103.53a.73.73,0,0,1-.54.22h-3.54a.28.28,0,0,0-.32.32v15.06a3.55,3.55,0,0,0,.7,2.53,2.65,2.65,0,0,0,2.09.63h.44a.76.76,0,0,1,.76.76v6.2a.76.76,0,0,1-.76.76h-2.53q-4.62,0-7-1.55t-2.34-5.92V104.07a.28.28,0,0,0-.32-.32h-2.09a.76.76,0,0,1-.76-.76V98.25a.76.76,0,0,1,.76-.76h2.09a.28.28,0,0,0,.32-.32v-7a.76.76,0,0,1,.76-.76h7.09a.76.76,0,0,1,.76.76v7a.28.28,0,0,0,.32.32h3.54a.76.76,0,0,1,.76.76V103A.73.73,0,0,1,782.85,103.53Z"/><path class="cls-2" d="M788.55,92.4a5,5,0,0,1,3.58-8.57,4.78,4.78,0,0,1,3.57,1.39,5.37,5.37,0,0,1,0,7.18,4.75,4.75,0,0,1-3.54,1.42A4.85,4.85,0,0,1,788.55,92.4Zm-.57,37.4a.73.73,0,0,1-.22-.54v-31a.76.76,0,0,1,.76-.76h7.4a.76.76,0,0,1,.76.76v31a.76.76,0,0,1-.76.76h-7.4A.73.73,0,0,1,788,129.79Z"/><path class="cls-2" d="M805.19,127.67a9.89,9.89,0,0,1-3.2-7.78V107.62a9.89,9.89,0,0,1,3.23-7.72Q808.45,97,814,97t8.86,2.91a9.89,9.89,0,0,1,3.23,7.72v12.28a9.89,9.89,0,0,1-3.2,7.78q-3.2,2.85-8.89,2.85T805.19,127.67Zm11.1-5.88a3.8,3.8,0,0,0,.89-2.59V108.25a3.8,3.8,0,0,0-.89-2.59,2.89,2.89,0,0,0-2.28-1,2.8,2.8,0,0,0-2.25,1,3.89,3.89,0,0,0-.85,2.59V119.2a3.88,3.88,0,0,0,.85,2.59,2.79,2.79,0,0,0,2.25,1A2.89,2.89,0,0,0,816.29,121.79Z"/><path class="cls-2" d="M852.93,99.83q2.15,2.85,2.15,8v21.45a.76.76,0,0,1-.76.76h-7.4a.76.76,0,0,1-.76-.76V108.5a4.82,4.82,0,0,0-.73-2.85,2.45,2.45,0,0,0-2.12-1,2.65,2.65,0,0,0-2.25,1,4.78,4.78,0,0,0-.79,2.94v20.63a.76.76,0,0,1-.76.76h-7.4a.76.76,0,0,1-.76-.76v-31a.76.76,0,0,1,.76-.76h7.4a.76.76,0,0,1,.76.76v1.2q0,.19.16.19a.69.69,0,0,0,.41-.25,7,7,0,0,1,5.63-2.4A7.58,7.58,0,0,1,852.93,99.83Z"/><path class="cls-1" d="M57,14.07c16.91.52,33.83.79,50.74,1.07l50.74.75c12.11.17,24.22.18,36.33.17l6.41-6.41c0-.54,0-1.08,0-1.62l.82.82L210.85,0h-1.64c-16.91,0-33.83-.08-50.74.16L107.73.93C90.82,1.21,73.91,1.48,57,2,40.81,2.44,24.62,3.21,8.43,3.83l8.76,8.76C30.46,13.13,43.73,13.71,57,14.07Z"/><path class="cls-1" d="M201.19,8c0,.54,0,1.08,0,1.62l.8-.8Z"/><path class="cls-1" d="M209.21,16.06h-1.64l-6.19,6.19c.15,11.7.31,23.41.67,35.16.43,16.5,1,33.08,1.69,49.84L206,158.09l2.31,45.65,1.73,1.73,2.32-43.05c.85-16.64,1.62-33.56,2.29-50.63s1.25-34.32,1.69-51.64S217,25.41,217.23,8l0-1.66-8.86,8.86Z"/><path class="cls-1" d="M10.4,160.25q-1.23-25.37-1.71-50.74c-.21-16.91-.21-33.83.12-50.74C9,45.25,9.54,31.72,10,18.19L2.22,10.38C2.73,26.51,3.5,42.64,3.7,58.77,4,75.69,4,92.6,3.82,109.51s-.89,33.83-1.71,50.74S.49,194,0,210.87L12.06,198.8Q11.35,179.53,10.4,160.25Z"/><path class="cls-1" d="M209.21,16.06l-.82-.82-.82.82Z"/><path class="cls-1" d="M156.22,207.68c-8.58-.42-17.1-.82-25.52-1.13s-16.87-.73-25.2-.94l-25-.74-24.79-.42c-12.23-.22-24.42-.14-36.63.06L6.37,217.26c17.24.45,34.6.57,51.87.28l25.95-.42,25.78-.74c8.59-.22,17.07-.61,25.54-.94s16.88-.71,25.22-1.13c14.61-.7,29-1.49,43-2.39l-1.84-1.84C186.37,209.17,171.19,208.38,156.22,207.68Z"/><path class="cls-3" d="M55.44,90.66c0-.83,0-1.8.84-2.17a16.29,16.29,0,0,1,2.51,3c.82,1.27.12,3-.27,4.31a35.44,35.44,0,0,1-1.77,4.46c-.27.64-.18,1.28-.41,2-.35,1.1-.91,2-1.21,3.13-.15.56-.7,1.84-.45,2.32l.82.57c.21.4-.17,1-.25,1.4-.3,1.12.13.88.63,1.78.37.64.17,1.44.59,2.12.31-1.17,1.09-2.21,1.48-3.34.28-.83.17-1.77.37-2.63a8.21,8.21,0,0,1,1-2.36c.39-.58,1.88-1.07,2.06-1.6.28-.77-.83-1.09-.93-1.86A7.73,7.73,0,0,1,61.37,99a8.87,8.87,0,0,0,.82-3.27c.06-1.5.87-2.07,1.31-3.44.79-2.55-1-6.55-2.35-8.62-.75-1.1-1.93-2.25-3.26-1.91-1.54.41-3,1.93-4,3.11a7.33,7.33,0,0,1-2.12,1.86,6.23,6.23,0,0,0-3.09-2.35c-1.12-.31-2.2-.58-3.41-.83a35.21,35.21,0,0,0-9.09-1c.9.73,2.67.31,3.77.52s1.91.59,2.85.84c-1.66.16-3.31-.56-5-.47-.94,0-3.61.37-4.31.92.87.3,2.49.24,3.25.54a18.73,18.73,0,0,0-3.25,1.26c.22.53.17.75-.28,1,.4,0,.34.33,1.19.21-1.19.48-3.3.73-4.1,1.79a6.21,6.21,0,0,1,2,.47l-1,1.35c1.8.12,4-1.82,5.74-1.88a34.61,34.61,0,0,1,4.86-.1,22.2,22.2,0,0,1,5.73,1c1.74.66,1.65,1.88,1.43,3.41l-.29.53a5,5,0,0,0,1.75.7c-.2.84-1.11.59-1.48,1.11,1.22.65,2.24,1,3.28,0s.4-2,.92-3c.19-.38.75-.52.76-1s-.74-.84-.73-1.34c0-1.36,1.61-.36,2.14.11"/><path class="cls-3" d="M44.09,152.75c-1.1-.4-2.61-3-2.72-4.12-.18-1.68-.74-3.25-.65-5s.9-3,1.56-4.51,1.18-3.13,1.92-4.58c1.34.57,2.39-3,2.61-3.94.26-1.05.2-2.14.38-3.2.14-.9,1.08-2.12,1.16-3-.3,1.5,1.71,3.25,1.08,5-.26.7-1,1.43-1.34,2.14a24.13,24.13,0,0,0-1.17,2.65c-.82,2.11-1.53,4.31-2.24,6.47a14,14,0,0,0-1.07,5.12,8.37,8.37,0,0,0,.75,3.4c.31.74.49,1.16-.11,1.87-1.11-.91-.73,1.45-.44,1.7"/><path class="cls-3" d="M51.3,125.09a8.79,8.79,0,0,1,1.36-3.1c.59-1.16.37-2,.44-3.27.06-1,.75-1.72.65-2.73,0-.53-.32-.76-.49-1.19a12.91,12.91,0,0,1-.35-1.49,5.24,5.24,0,0,0-1,3.14,8.06,8.06,0,0,1-.73,3.39,4.75,4.75,0,0,0-.87,2.89,27.07,27.07,0,0,0,.7,2.91"/><path class="cls-3" d="M31.61,90.37a5.29,5.29,0,0,0-2.13,1.33l.24-1c-1,1.18-2.4,1.47-3.29,2.84a8.14,8.14,0,0,0-1.12,4,2.47,2.47,0,0,0,.15,1.56,8.25,8.25,0,0,1,.34,2.74c0,1.57.86,2.88,1.15,4.41a8,8,0,0,0,.1-1.86l.83.9C29,103.4,26.59,101,27.3,99c.7,1.52,1.41-2.14,1.5-2.6-.13,1.41.81,2.39.85,3.64a22.48,22.48,0,0,1,.08,3.34,10.21,10.21,0,0,0,.48-3.42,14.26,14.26,0,0,1,.83,2.84,2.8,2.8,0,0,0,0-2.11,5.15,5.15,0,0,1-.26-1.88c0-1.42-1.42-2-1.48-3.27.93-.5,1-1.5,1.18-2.38s1.21-1.79,1.15-2.61"/><path class="cls-3" d="M29.91,116.67a17.11,17.11,0,0,0,1,3.14,8.79,8.79,0,0,1,.47,3.12,9.77,9.77,0,0,0,0-4.38c-.29-1.08-1.57-2.09-1.5-3.35a8.91,8.91,0,0,0,0,1.48"/><path class="cls-3" d="M31.89,124.71c0,2-.23,3.33,1.24,5.54a12.38,12.38,0,0,1,1.13,2c.32.83.49,1.93.71,2.73,1.05-1.53-.51-3.94-1.1-5.34s-1.94-3.37-2-5.07"/><path class="cls-3" d="M60.32,108.39a21.78,21.78,0,0,1-1.7,5.6c.38-1.15.75-2.35,1.24-3.44a5.84,5.84,0,0,0,.83-2.34"/><path class="cls-4" d="M43.53,152.3c.13.57.83.27,1.22.54l.82,1.12c0-.81.51-.7.8-1.37s-.3-1-.62-1.49c-.59-1-1-3.27,0-4.25.5-.47,1.41-.54,1.94-1.13a4.75,4.75,0,0,0,.72-2.35c.42-1.92,1.69-3.62,2.45-5.45a18.29,18.29,0,0,0,1.22-4.09c-.85.53-1.61.51-1.87-.36s-.06-3.76-.63-4.55c-.82,1.36-1.22,2.16-2.05,3.57s-1.45,4.63-2.1,6.09c-.82,1.83-.87,3-1.5,4.5a6.24,6.24,0,0,0-.32,4.45c.21.65,1.33,2.38,1,3-.29.5-.67.05-1,.47l-.09,1.52"/><path class="cls-4" d="M52.71,132.32c.25-.84,1.11-1.5,1.23-2.32a13.41,13.41,0,0,1-1.58,1c.77-1.53,1.91-2.78,2.25-4.55A16.19,16.19,0,0,1,52,129.22a23.31,23.31,0,0,1,2.61-3.69l-.83.21c.48-.88,1.52-1.64,1.85-2.51-.6,0-.94.58-1.47.73.15-.73,1-2.82.63-3.55-.19-.44.18-4.12-.09-4.55l-1,1c-1,1.63-1,4.94-1.59,6a4.33,4.33,0,0,0-.91,3.21c.21,1.15,1,2,1.1,3.21s-.54,2.29-.1,3.57"/><path class="cls-4" d="M56.78,120.4c.34-.45,1.51-1.75,1.28-2.41-.3.58-.89.42-1.39.52,0-.77,1-1.31,1.42-2a8.93,8.93,0,0,0,.9-2.76A3.87,3.87,0,0,0,57.41,115c.55-2.62,2-3.68,3.19-6.06a24.13,24.13,0,0,0,1.59-5.16c.28-1.5.94-2.84,1.13-4.41.16-1.23.41-2.4.47-3.66s-.14-2.53-.11-3.75c-.47.46-.53,1.45-.71,2.07a17.2,17.2,0,0,1-1,2.34,12.35,12.35,0,0,0-.41,2.25c-.2.79-.64,1.57-.89,2.32s-.11.86.19,1.64a1.68,1.68,0,0,1-.33,2.05c-.52.48-1.15.6-1.59,1.2a4.8,4.8,0,0,0-.7,2.26,35,35,0,0,1-1.88,5.67,5.31,5.31,0,0,0-.38,1.88c.08.34.61,1.11.69,1.49a4.9,4.9,0,0,1-.13,2.13"/><path class="cls-4" d="M35.09,109.8c-1.68-1.53-1.68-3.18-2.41-5.18-.59-1.6-.31-4.28-1.88-5-.19,1,.36,1.88.41,2.9-.31-.76-.67-1.77-1-2.5a15.77,15.77,0,0,0-.4,2.85,20.34,20.34,0,0,0-1-6.35c-.41.4-.53,1.8-.66,2.33-.76.17-1.06,0-1.22.86a5.71,5.71,0,0,0,.35,2.08c.28.87,1,2.5.59,3.42a2.2,2.2,0,0,0-1-.8c0,.48,0,1,0,1.46-.24-1.71-.93-2.87-.93-4.67,0-1.56-.67-3-.37-4.49a6.14,6.14,0,0,1,1.85-3.77c1.14-1,2.81-1.43,4.07-2.3.38-.25.82-.5.77-1a5.25,5.25,0,0,0-1.84-.5c.47-.78,3.15-1.18,3.88-1.7l-.84-.3.48-.56-.4-.37c.93-.59,2.45-.65,3.27-1.3-.91-.52-2.24-.11-3.18-.46,2.23-1.1,7.47-.62,9.67-.36a38.7,38.7,0,0,0-4-1.26c-.79-.11-1.55,0-2.3-.17a3.28,3.28,0,0,0-3.33,1c-.51.61-.38.95-1.14,1.29s-1.44.13-1.59.93.39,1.22-.18,2c-.42.59-1.22.91-1.72,1.45-1.08,1.13-2.24,2.15-3.2,3.29a11.43,11.43,0,0,0-1.46,3.63,18.25,18.25,0,0,0-.49,1.94c-.16.81,0,1.72-.19,2.53s-.52,1-.19,1.88.63,1.7,1,2.53a31.15,31.15,0,0,1,1.79,5.53c.42,1.62,1.41,3.05,1.59,4.75l.2-.27c.21,1.79.85,3.38,1.14,5.07a56.25,56.25,0,0,1,1.12,5.64A9.82,9.82,0,0,0,31.43,129c.26-1.28.85-4.45.56-5.81-.23-1.07-.5-.66-.66-1.74-.32-2.11-1.64-3.58-1.48-5.86.2,1.2,1.21,1.87,1.54,3s-.11,2.62.29,3.76c.74-1.29,2.82-.76,3.11-2.57a3.8,3.8,0,0,0-.26-1.74,5.94,5.94,0,0,0-.77-2.13c-.83-1.28-2.42-1.24-1.88-3.19.6-2.16,2.66.13,3.57-1.05.47-.61-.1-1.56-.54-1.94"/><path class="cls-4" d="M42.49,151.43l-1-.1c-.29-.35-.41-1-.87-1.12s-1.1.41-1.48.57a11.62,11.62,0,0,1-4.51.55c-.1-2.32-.84-4.41-.84-6.76,0-2.18-.16-4.36-.37-6.53a29.8,29.8,0,0,0-1.13-5.73c-.52-1.61-1.3-3.34-1-5,.15-.77.66-1.83.73-2.61a7.3,7.3,0,0,0,0-2.61c.72.66,0,1.81,0,3,0,1.33-.18,2.79.39,3.94,1.06,2.16,2.53,3.69,2.6,6.16,1.18-2.69-1.24-4.95-2.15-7.39-.5-1.34-1.19-2.4-1-3.89.08-.82-.69-1.51-.12-2s2.26-1,2.74-1.54c.42.91.6.82.33,1.73a3.18,3.18,0,0,0-.1,2c.77,2,1.92,1.39,3.55,1.67a5.52,5.52,0,0,1,1.46,2.78c.13,1.43-.79,2.7-.85,3.64s-.34,1.89.81,2.44c.84.39,2.5-.57,3.38-.37.09,1.46.47,2.21-.1,3.56a27.3,27.3,0,0,0-1.82,5.38,13.62,13.62,0,0,0,1.4,8.31"/><path class="cls-4" d="M53.84,130.43c.38-.76,1-1.28,1.34-1.94a9.29,9.29,0,0,0,.63-1.92c.35-1,1.58-3,1.41-4.11a2,2,0,0,1-2.49-1.31,8.3,8.3,0,0,1-.6,2.84c.47-.33.51-.22,1.21-.51-.47.86-.9,1.26-1.56,2.26h.61c-.69,1.11-1.57,2.14-2.32,3.32.85-.59,1.46-1.12,2.26-1.74a12.7,12.7,0,0,1-1.14,1.88c-.27.5-.35,1.14-.66,1.63a5.36,5.36,0,0,1,1.45-.71l-.15.38"/><path class="cls-4" d="M56.85,120.3a3.49,3.49,0,0,0,1.21-2.23,3.33,3.33,0,0,1-1.3.34,18.39,18.39,0,0,1,1.34-1.94,7.32,7.32,0,0,0,.9-2.72,3.48,3.48,0,0,0-1.57,1.16,31.2,31.2,0,0,1,2.18-4.26c.62-1.21,1.16-2.49,1.78-3.75-.06,2.62-1.39,4.76-1.92,7.22-.24,1.18-.53,2.36-.87,3.53a8.47,8.47,0,0,1-.67,1.82c-.28.43-.87.73-1,1.2"/><path class="cls-5" d="M48.69,93.85c-.92.18-.75-1.43-1.77-1.2.19.6-.46.53-.65.93-.37.72,0,.62.45,1.09A4.38,4.38,0,0,1,48,97.31c.07.63-.13.91.4,1.31l1.38.31c.56-.18,1.48-1.37,1.94-1.78-.51-.56-2.53-.59-2.5-1.35,0-.59,1,0,.35-1.08A1.76,1.76,0,0,0,48.31,94"/><path class="cls-5" d="M57.88,91a21.86,21.86,0,0,1,.43,5.33c.14-1.56,1.9-4.65-.62-5.43"/><path class="cls-5" d="M55.26,90.66A3.6,3.6,0,0,0,53.58,90c-.24.83.76.93.72,1.48l-.72.69c-.15.36.07.52,0,.83-.29,1.1-1,2.11-1.27,3.19.37-.86,1.25-1.54,1.7-2.37a6.67,6.67,0,0,0,1.06-3.06"/><path class="cls-6" d="M51.9,116a7.31,7.31,0,0,1-1.13,4.38c-.78,1.39-.44,2.66-.13,4.13a22.62,22.62,0,0,0,1.56,3.56c.59,1.5-.37,2.8-.13,4.37.4-.12.3.2.56-.17.09,1.11-.15,2-1.46,1.88-1-.05-1.29-1-1.5-2a24.8,24.8,0,0,1-.14-3,8.52,8.52,0,0,0-1-2.5c-.82-2.11.5-3.34,1.24-5.14s1.06-3.42,1.77-5.14v-.11"/><path class="cls-6" d="M54.15,110.14c.17,1.58-1.19,2.81-.86,4.25.17.73.78,1,1.09,1.66a5.8,5.8,0,0,1,.4,2.71c-.05,1.44-.34,2.76,1,3.72s2.53-1.18,1.6-2c-1.31.6-.72-2.35-.75-3-.05-.78-.44-1-.6-1.66a8.17,8.17,0,0,1,.1-2.09c0-1.36-1-2-1.12-3.25-.16-1.44.78-2.48-1.37-2.62a2.67,2.67,0,0,1,.12,3l.24.28"/><path class="cls-7" d="M74.67,107.84c-5.32-.74-4.54,5.23-2.62,8.17,2.69,4.18,7.25,5.87,10.85,8.92a14.32,14.32,0,0,1,1.75,1.83,19.39,19.39,0,0,1-3.47-.1,11.2,11.2,0,0,0-2.39-.51c-2.46-.29-4.15-2.27-6.07-3.38.39.06.8,0,1.2,0-.27-1.19-2.37-2.39-3-3.23a5.79,5.79,0,0,0,1.67.82c-.43-1.61-2-3-2.49-4.61a14.59,14.59,0,0,1-1.15-5.49c.06-1.37-.32-3.73,1.15-4.21,2-.66,3.38,1.68,4.79,1.59"/><path class="cls-8" d="M82.52,85.52s-9,4.29-12.33-3.31a5.49,5.49,0,0,1,.21-2.82c.54-1,1.24-4.68,5-7.65,0,0-7.36-4-1.38-13.26S85.2,53,89.65,54.26l3.75-2.92L94.3,51s.31-.6,1.25-.3L96.77,52l.15.68,7.21,3.91a30.36,30.36,0,0,1,4.06,5.13,14.44,14.44,0,0,1,4.83,2,8.12,8.12,0,0,0,3,.68c1.77.08,6.51,4.16,6.89,5.06s.07,1.53-.84,2.31-5.14,3.65-5.14,3.65-.31.24.46.63,5.22,1.77,7.05,6c0,0,2.68,3,1.61,4.37s-2.92,4-15.1,3.31c0,0-.47,0-.15.61s3.29,3.6-.22,6.29l-2.91,2.51a9.8,9.8,0,0,1-3.31.69c-1.37-.07-3.9,1.31-6.36-.3S91.78,92.4,96,86c0,0,3.23-1.61,4,2.92,0,0-.53.46.62,1.54a3.45,3.45,0,0,1,.93,2.76s.6,2.29,2.3,1.06c0,0-4-7.2-2.76-8.65s.22-2.92,7-2.92l5.14,1.15.23-.53s-1.62-.08-2.39-2.39c0,0-5.36-1.67-6-2.84s-1.36-2.07.85-3.83A32.14,32.14,0,0,1,111.49,71s1.37-.62-.53-1.53S109,68,107.79,68.12s0-.62-1.29.62-5.21-.62-5.43-1.16-2.22-1.45.76-4.52c0,0,.15-2.22-2.6-4.75S96.92,56,96.92,56l-1.53.08L93.94,57s-1.22.54.07,2.07,2.84,3.21-.07,4.74-5.45-2.45-5.45-2.45-.46-3.45-5.35-2.83-5.3,8.66-5.36,9,4.36-.39,7.81,3c0,0,1.45.84-1.83,2.67s-6.29,7.43-6.29,7.68-.15.53.38.45,7.28-3.9,8.35-3.75,4.14-.15,2.61,3.14-6.29,4.83-6.29,4.83"/><path class="cls-9" d="M91.27,82.75s-9.13-4.9-6-18.24c0,0,.06-.83,2.14-.46,0,0-.31-1.6,2-1.6s5-.63,10.27,2,8.58,13.79,7.37,16.48S100.83,89,91.27,82.75"/><path class="cls-10" d="M91.74,84s-8.68,22.91-6.91,29.64l.37.08s-1.46,10-1.16,11.93c-1.48-.82,1,.52-.74-.62-4.47-2.92-14.57-10.71-12.42-15.83,0,0,4.28-7.52,12.94,9.65l.08,1s-1.3-.23-.39,2.21-.61.24-1.29,1.09l-.3.31"/><path class="cls-11" d="M93.51,78c-.52-.1-.74-.6-1.22-.83a15.51,15.51,0,0,0-2.05-.5c-.87-.3-.68-.46-1-1.1A6.57,6.57,0,0,0,88,74.16a5.8,5.8,0,0,1-1.43-2c-.33-1.06.17-.84.76-1.52.85-.94.89-2,2.33-2.41-.22,1.87.82,3.6,1.26,5.34.21.85,0,1.94.62,2.55l1.14.53.47,1.21"/><path class="cls-11" d="M100,64.87a9.12,9.12,0,0,0-3.74-1.59c-1.45-.1-2.52,1-4,.94s-2.24-1.56-3.57-1c-.63.22-.87,1-1.41,1.23s-1.22,0-1.85.31l.62,1c.55.19.58-.39,1-.58a3.25,3.25,0,0,1,2,.21c.39.28.27.73.84.95,1.15.4,2.33-.53,3.61-.12.85.28,2.24.79,2.42,1.77l.35.06-.07-.31c1.1-.48,2.74-1,3.9-.45A22,22,0,0,1,102,68.5l1.76.7c.53,1.21,1.26,2.33,1.8,3.55l.38.94c-.06.62-.35.3-.65.68a3.72,3.72,0,0,0-.76,1.57c-.38,1.76.17,2.58,1.59,3.49.75.49.83.59.54,1.47s-.39,1.48-1.17,1.69a11.37,11.37,0,0,0-2.26.4c-.77.36-.93.77-1.43,1.37-.28.35-1.08,1.26-1.41.58s.8-1.39,1.13-1.69"/><path class="cls-12" d="M32.53,103.26s-.89-3.13-.26-4,3.12,9.63,2.62,10.39-2.37-6.39-2.37-6.39"/><path class="cls-13" d="M153.17,65.1,149,64s-.54,1.44-5.7-1.34a5.67,5.67,0,0,0-4.06-2.09s-.82-.82.36-1.26l.36-1.25a1.16,1.16,0,0,1,.9-.09s6.5-2.71,13.64,4.32c0,0,2.09-2,2.52-2.53s-2-.26-4.6-2.08c0,0-4-.35-5.41-6,0,0,2.7,2.34,3.6,2.07,0,0,.82-.45-.18-1.09s1.36-.18,1.36-.18l.08-.53s5.62,1.45,5.88,2.53-.37-3.43-.37-3.43l.46-.18V44.42l2.88,5.7a3.73,3.73,0,0,1,1.17,2.08c.28,1.36.36,2,.36,2s1.72-1.09,2.18-.83a.79.79,0,0,0,.9-.18s.1-8.86,2.35-11c0,0,.73,0,.82-.63s1.71-.53,1.71-.53-1.45,1.8-1.08,3,1.18,9.13,1.18,9.13l1.35,1s9.48-7.4,15.45-6.78c0,0,3.52-.18-12.48,8.4a21.3,21.3,0,0,1,.91,4.24c0,1.36,4.43-3.51,13.65-4,0,0,5-1.27-.09,1.26s-11.92,6.24-14.27,7.32c0,0,1,3.17.26,3.89s11.66-.46,14.19.17l2.35.45a2.24,2.24,0,0,1-1.46,1.81l-.53.53-.82.37a5.82,5.82,0,0,1-3-.19l-3,.27a4.23,4.23,0,0,0-2,.36c-.8.45-6.78-.18-6.78-.18a13.76,13.76,0,0,1-1.36,2.53,3.38,3.38,0,0,1,.73,1.63l11.56,6s1.17.54,1.45,1.17,1.08.63-.54.72-.73.81-.63,1.09.36,1.71-1.64.9-13.54-6.78-13.54-6.78-.54,0-.45.63-1.17,1.62-1.17,1.62-1.45-.18-.82.73,5.69,10.48,6.77,10.75,1.62,3,.1,2.16-.9,1.1-.9,1.1l-.1,1-1.27-.54s-.1,1.08-.63.62-5.87-3.06-8.85-15.08l-1.09-.09s-6.87,20.33-8.76,21.32,1.44-13.74,1.72-14.63,1.72-5.32,3.89-6.78L156.88,81s-13.56,7-17.08,10.84.28-1.35.28-1.35,5.05-8.78,13.54-12.66c0,0-1.88-2.45-1.8-3.15a7.25,7.25,0,0,1-2.53.71,1.81,1.81,0,0,0-1.54.73s-2.17.18-3.52.27-6.06,1.45-6.43,2.09.63-4.16,8.59-6c0,0,3.25-.37,4.78.27,0,0,0-5.16,2-7.69"/><path class="cls-14" d="M125.82,93.25s-6.5-.5-7.37.88-1.51,1.63-1.51,1.63-4,2.5-2.63,6.75,5.37,11.26,9.51,12.51,2.74,2.12,9.62,1.13c0,0,.25-1.25,1.12-1.13s2.87,0,3.39-1.76a1.66,1.66,0,0,1,1,.12,3.87,3.87,0,0,0,2.37-.24c.38-.25,2.51,1,2.38,5s6.13,5,6.13,5,1.88,1.61,6.64-.75c0,0,2.37-3.75-1.88-7.38,0,0,.38-2.76,1.25-3.39s2.48-2.63,1.74-6.12-1.5-7-1.5-7-.62-2.25-1.88-2.38-2.63-.24-4.25-4a3.16,3.16,0,0,0-2.86-1.87s-.26,2-1.63,1.87-1.25-.75-1.39-2.74.38-3.5-2.5-5.5-3.37-2.15-5.75-.63-1.49.63-4.13,2.75a11.88,11.88,0,0,0-3.49,4.37l-1.14,2.76Z"/><path class="cls-15" d="M141.7,113.27s-3,5.64-1.25,14.4a10,10,0,0,1,.25,5.24l-.62,3h-.63a5,5,0,0,0-1.37-3.25,20.65,20.65,0,0,0-1.88-1.74l-3.51-.27s-.62.39-1.38-.87-2.11-1-2.36-.13-2,5.5-.5,9.76,6.26,8.51,9.13,9.51c0,0,1.25,1.26,2,1.88s1,.25,1,.25l-.24,1.26a2.83,2.83,0,0,1-4.13-.52c-1.87-2.38-4.63,2.89-4.63,2.89s-4.87,16.5-4.87,19.88.62,2.75.62,2.75l3.74-.24,3-4.27s1.25,3.77,1.87,4.15,7.51.24,7.51.24l.51-.76h.86l.39-.74h1.62l.63-.63H149l1-.12s3.5-1.88,5.37-7.51c0,0,.75,3.12,1.64,3.63,0,0,0,3.5,1.25,4.12a1.77,1.77,0,0,0,2.13-.49s.74,1,1.49.37a6.33,6.33,0,0,0,3,.12,3.94,3.94,0,0,0,2-1.75s.13-.75-1.63-6.26-1-14.51-1-14.51-.5-3-5.38-5.88-7.76,1-7.76,1l-2.73,4.63-.75-3.88s5.86-6,6.24-7.25a11.76,11.76,0,0,1,3.51-4.39c1.12-.74,1.73-2.24-1-4a2.55,2.55,0,0,1-1.26-1.5s-7.11-.63-8.13.88c0,0-.86.49-.24-.76l-1.13-.74s-.75.5-.75-2.12V126a1.23,1.23,0,0,1-1.13-1c-.24-1-1.24-4.76,0-5.88"/><path class="cls-16" d="M149.32,174.14s3.85-6.38,4.13-8.35.65-6.68.65-6.68.09-7.69.76-6.37.85,19,3.45,20.26,3.68,1,3.68,1a1.11,1.11,0,0,0,.75-1.12,1.55,1.55,0,0,1,.45-1.31s.57-1-.17-1.33a2.73,2.73,0,0,0-1.5-.08s-.94-.86.18-.86a1.31,1.31,0,0,0,1.33-1s-1.41-15.11-.28-16.9c0,0-3.29-7.4-8.82-5s-6.84,12.76-6.84,12.76l-1.14,3.09s-2.25,5.07-2.71,5.35-2.17,3.94-1.88,6.55,2.53,1.33,2.53,1.33l.48-.77h1.58s3,0,3.38-.64"/><path class="cls-7" d="M136.1,152.65s1.79,11.92-1.21,15.77c0,0-.49,1.31.18,1.39s1-1.3,1-1.3,1.4,5.15,2.54,4.22,1-.75,1.4-.64.85.92.85.92-.2,2.16.45,2.63a8.88,8.88,0,0,0,2,.84s-6,.94-7.13-.1-1.49-3.75-1.49-3.75-.49-1-.94-.55-2.92,4.2-2.92,4.2l-3.37.38s2.34-23.09,7.59-25c0,0,1,.37,1,1"/><path class="cls-15" d="M144.17,140.27s2.34-4.31,6.18-4.12c0,0-1.78,3.93-3,4,0,0-1.22,3.85-2.92,4a6.18,6.18,0,0,1,.84,1.69,5.06,5.06,0,0,1-.17,3.47l1,1.5s-3.67,6.76-2.08,13.32c0,0-3.66,6.19-3.37,6.93s-1.5-12.57-.56-15.76,1.5-5,1.5-5-1.23-.29-1.59-.94a3.09,3.09,0,0,1-2.72-1.5c-1.12-1.68-10-4.14-8.71-15.11,0,0,.74-5.35,2.61-1.69l4.49.37c.1.29,3.3,1.88,3.3,4.51s4.49,4.87,5.16,4.21"/><path class="cls-17" d="M168.37,161.1s.57-1.68,2.24.47c0,0-1.58.75-2,.28s-.28-.75-.28-.75"/><path class="cls-18" d="M130.24,127.58a2.29,2.29,0,0,0,1.56,1.34c1.07.17,1,.88,1,.88s1.25-2.2-.89-2.79-1.66.57-1.66.57"/><path class="cls-19" d="M135.72,124.59s-.64,1.14-.14,1.88,1.73.1,1.8.06l1-.24-.67-1a1.26,1.26,0,0,0-2-.72"/><path class="cls-20" d="M140,128.58a1.72,1.72,0,0,0-1.65-.33c-.82.37-.32,2,.65,2.28s1.71-.29,1.59-.53Z"/><path class="cls-18" d="M139.5,119.44s-1.13-2.07-1.85-2-1.42.15-.93,1.42a3,3,0,0,0,1.7,1.65h1Z"/><path class="cls-21" d="M126.5,142.16s1.44-1.78,2.55-.1-.76,2.52-.76,2.85l-.42.26.23-1c.29-.32-.13-1-.66-1.11s-1.22-.12-.94-.86"/><path class="cls-22" d="M128.63,146.64a1.71,1.71,0,0,1,2.21,1.1c.63,1.68.29,2,.29,2l-.52.06c-.12-.19-.05-.61-.41-.91s-1.43-.42-1.55-.79a1.46,1.46,0,0,1,0-1.45"/><path class="cls-23" d="M134.34,150.86s-.12.44-.9-.41-1.24-.35-1.24-.35-.94-.18-.61-1.85c0,0,2.21-.39,2.48,0a.87.87,0,0,1,0,1.21,1.08,1.08,0,0,1,.36,1.44"/><path class="cls-24" d="M136.51,151.13a1.28,1.28,0,0,1,1.91.26c.8,1.15,1,.87,1,.87a1.48,1.48,0,0,1-1.69.43c-1-.45-1.58-.87-1.26-1.56"/><path class="cls-25" d="M133.17,151.81s-2.63-1.68-3.94-.5-.77,1.68-.77,1.68.22,1.25,1.92,1.09l.92.49Z"/><path class="cls-26" d="M130.57,156.67l-2.87-.77c-.08-.16-1.13-.67-1.67,0s-1.49,1.31-.48,2.78a5.25,5.25,0,0,0,3,2.24c.28-.1.81.06,1-.31s1.45-3.44,1.09-3.94"/><path class="cls-27" d="M127.92,164.91l-1.36-.24c-.43-.07-2.64-.84-2,1.43S126.8,168,126.8,168s1-.18,1.07-.95.52-1.38.06-2.12"/><path class="cls-28" d="M147.9,148.74l.37-.48,1.06,0a2.18,2.18,0,0,0,.57.75c.37.34-.45,1.13-.66,1s-1.4.37-1.4-1.36"/><path class="cls-29" d="M151.74,144.54s-.19,1.14,1.42,1.08,1.84,0,1.67-.5-.56-1.82-1.26-1.63-1.14-.46-1.82,1"/><path class="cls-30" d="M156,142.13s-.41,1.15,1.07,1.55,1.57.86,1.58.95.4.4.55-.24.52-1-.69-1.87-2.17-1.07-2.51-.39"/><path class="cls-31" d="M160.71,146.1s-.14,1,.39,1.33a3.28,3.28,0,0,0,1.27.46c.29,0,.56-.09.08-1s-1.21-1.41-1.73-.78"/><path class="cls-32" d="M167.71,168.6a1.46,1.46,0,0,0,.47,1.46,10.23,10.23,0,0,0,2,.88s.7.38,0-.88-1.84-2.39-2.45-1.46"/><polygon class="cls-32" points="166.86 153.45 166.44 153.93 167.71 154.04 166.86 153.45"/><path class="cls-27" d="M123.53,171.19c.47-.2.63-.83,1.12-1a4.13,4.13,0,0,1,1.66-.14.78.78,0,0,1,.7.92l-.33.81v.79a8.6,8.6,0,0,1-1.56.1,2.48,2.48,0,0,1-1.65-.43l0-.84"/><path class="cls-33" d="M177,117.5s-5.52.55-7,3.45c0,0-.64,1.14.57,1s-3.67,2.63-2.63,8.06,2.06,5.63,2.06,5.63,2,3.47,7.89,2.91,6.28-6.47,6.28-6.47,1.88-4,1.13-7.79a47.5,47.5,0,0,1-2.07-4.69,2.1,2.1,0,0,0-1.69-1.59,3.17,3.17,0,0,1,1.32-1.49c.85-.37,5.26.46,5.26.46s2.25.66.74,6.27A49.26,49.26,0,0,0,187,134.1c.1.27.39,2.62-.47,3.38s3.57.37,3.57.37,3.28-14.44,1.49-21.29a7.69,7.69,0,0,0-7.78-3.66l-2.62.94s-.37-.94,2-1.79a5.17,5.17,0,0,1,4.5.85s1.88,1,2.71.45a.84.84,0,0,0,.21-1.31l.18-1.49s-4.31-3.65-8-2.16c0,0-2.25.38-.47-.66s2.16-2,8.17-.65c0,0,1.87-.09.65-2.17s-4.88-2-4.88-2-4.69.38-6.75,3c0,0-1.6-4.8-2.25-6.1s-7.22-1.23-8-2-2.55.29-2.55.29a6,6,0,0,1-2.82.18c-.84-.37,1.79,2.06,5.45,1.41,0,0,3.83.37,3.83,1.31,0,0-8.35.19-10,1.14s-2,1-1.31,1.5-2.64,1.11-2.64,2.14,8.64-4,16.7-.94c0,0,1.22.84.47,1.69s-1.31-1.11-1.31-1.11-3.29-.94-4.4,0-4.32,1.77-8.16,5.53-4.31,12.19-4,14a37.4,37.4,0,0,0,1.13,4.41s1.21.28.66,1.87,4.59,9.1,4.59,9.1.19-.19.94.37a5,5,0,0,0,1.32.75l1.49,1.88,1.23,1.11.21-.47.48-.18a5,5,0,0,1-.64-2.18,5.33,5.33,0,0,0-.19-1.77,24.39,24.39,0,0,1,1.55,2c.39.61-.05-.48-.08-1.24s.4-.35.4-.35l0-.63s1-.2.43-.73c0,0-6-6.89-7.89-15a6.29,6.29,0,0,1-.16-3.56,8.34,8.34,0,0,0,.54-3.18s2.19-7.34,9.81-6.83c0,0,3.9,4,2.63,7.11"/><path class="cls-33" d="M184.07,134s-2,5.87-2.94,6.71-1.55,0-1.55,0,2.3,3,2.48,4.13.42,5.34,0,5.76a1.64,1.64,0,0,1-1.36.72l-.23.74s-1.92,1.35-2.63,1.21l-.22.62s-5.4,2-5.63-5a11,11,0,0,0,.52-4c-.28-1.32-.13-5,.84-6.06s4.69.38,5.67.1,4.78-3,5-5"/><path class="cls-33" d="M174.61,139.24a19.06,19.06,0,0,0,3.37.94,14.73,14.73,0,0,1,2.68.38l1.87-3.28a7.46,7.46,0,0,1-7.83,1.82"/><path class="cls-12" d="M179.16,148.63l-3,2.38-.71-.27-.15,1.31a4.77,4.77,0,0,0,3.86-3.42"/><path class="cls-12" d="M176,140.08a4.66,4.66,0,0,1,.28,2.35c-.24,1.12-.89-2.49-.65-2.38Z"/><path d="M163,122.33a1.92,1.92,0,0,0-.38,1.3c0,.4,0,.78,0,1a9.34,9.34,0,0,0,.3,2l.59-.13-.59.12a5.87,5.87,0,0,0,.78,2.24h0a17.9,17.9,0,0,0,1,1.9l1-.1.22-.87a6.25,6.25,0,0,0-.53-1.71c-.14-.52-.26-1.12-.42-1.7v0a26.72,26.72,0,0,0-1.06-3.58l-1.08.53a27.76,27.76,0,0,1,1,3.43l.57-.19-.58.16c.15.53.27,1.12.42,1.69a8.47,8.47,0,0,1,.49,1.4l-.09.31.53.28.48-.37c-.32-.38-.45-1.09-.9-1.81l-.51.33.51-.32a4.69,4.69,0,0,1-.62-1.84h0a8.08,8.08,0,0,1-.27-1.78l0-1,0-.38,0-.12Z"/><path class="cls-34" d="M176.58,133.2l.6-.3.21-.36.82-.52c.32.34.26.77.33,1.17a2.14,2.14,0,0,1,.1,1.21c-.19.56-1.15,1.48-.79,2.22s1.32-1.43,1.51-1.69c.51-.69.37-1.16.45-2a2.52,2.52,0,0,1,1.5-2.14c.68-.25,1.69.13,2.28-.38.31-.27.2-.59.18-1a2.77,2.77,0,0,1,.31-1.49,4,4,0,0,0,.29-2.83,10,10,0,0,0-1.82-3.28,5.65,5.65,0,0,0-2.31-2,4.69,4.69,0,0,0-2.94-.06c-.41.1-2.86.36-2.77.83.82.08,2-.56,2.51.38a2.89,2.89,0,0,1-.18,3,7.51,7.51,0,0,1-1.67,1.78l-.94.87c-.38.31-.81.5-1.18.84a4.28,4.28,0,0,0-.55,5.69,2.42,2.42,0,0,0,2.33.88,2.76,2.76,0,0,0,1.84-.8"/><path class="cls-35" d="M178.37,123.77c-.41.51-1.08.9-1.38,1.51a3.69,3.69,0,0,0-.13,1.59c0,.94,0,1.85,0,2.81-.93,0-1.15-2-1.8-2.33-.38.47-.13,1.13-.38,1.63-.36.67-.56.75-.16,1.5a5,5,0,0,0,1,1.49c.64.55,1,.07,1.7-.22.21-.41.25-.79.71-.94s.67.1.9-.36.06-1,.48-1.34l.93-.07c.31-.22.15-1.27.12-1.64a5.25,5.25,0,0,0-.39-1.57c-.2-.56-.86-2.4-1.63-2"/><path class="cls-36" d="M178.26,120.4c.09,1,1.09.65,1.7.74a3,3,0,0,1,1.82,1.72,4.79,4.79,0,0,1,.56,3.09,10.53,10.53,0,0,1-.37,1.86l-.19.81a5.48,5.48,0,0,1,1.17-1.22l.41.39c.87-1.74-.38-3.86-1.31-5.29s-1.58-2.55-3.42-2.25l-.4,0,.14.54"/><path class="cls-37" d="M183.23,131.13c-.91.46-.32,1.77-.92,2.36-.37.34-.81.05-1.19.23l-.86,1a5.23,5.23,0,0,0-1.08,1.6,3.23,3.23,0,0,1-1.77,1.69,2.33,2.33,0,0,1-1.55-.09c-.56-.13-1.12-.07-1.68-.18a6.9,6.9,0,0,1-2.93-1.56,5.39,5.39,0,0,0,4.72,2.12,14.86,14.86,0,0,0,2.84-.11c.62-.12,1-.42,1.49-.55a2,2,0,0,0,1-.56A7.32,7.32,0,0,0,182.7,135c.33-.77.47-1.56.83-2.29a14.56,14.56,0,0,0,1.28-4.38c.09-.55.17-1.11.3-1.64-.46.1-.32.81-.41,1.17a7.94,7.94,0,0,0-.44,1.56c-.09,1-.62,1.39-1.31,2"/><path class="cls-33" d="M170.89,107.82c-.63-.13-1.84.89-2.39,1.2a12.24,12.24,0,0,0-1.68,1.12L166,111c-.27.29-.66,1-1.07,1.13l-1.15-.43c-.2-.47.24-.41.49-.65a13.16,13.16,0,0,1,2.07-1.28c.55-.38,1-.93,1.6-1.26s1.3-.49,1.42-1l.06-.47c-1.38-.55-3.4,1.64-4.37,2.42-1.42,1.16-2.81,2-3.7,3.73-1,1.83-2.06,3.23-2.05,5.37s-.29,4.32-.19,6.48a5.13,5.13,0,0,0,1,3.15,3.23,3.23,0,0,1,.94,1.58,10.24,10.24,0,0,0,.67,2.23c.43.79.79,1.57,1.25,2.34a17.09,17.09,0,0,0,2.09,3.52,18.15,18.15,0,0,1,1.86,2.63c.17-.43.53-.67.57-1.15.47.5.85,1.23,1.35,1.73.11-.39.21-1.4.6-1.6l1.28.29c.52-1.26-.3-2.14-1.13-2.86a7.41,7.41,0,0,1-2-2.44,21.49,21.49,0,0,1-1.11-2.82c-.3-.94-.75-1.79-1.14-2.73a42.17,42.17,0,0,1-1.78-5.91,17.85,17.85,0,0,1,.69-5.67,24.26,24.26,0,0,1,1.21-3.07,2.92,2.92,0,0,1,.9-1.16c.38-.28.77-.52,1.13-.78,1-.71,2.73-1.14,3.4-2.15.37-.57,1.13-2,0-2.29"/><path class="cls-38" d="M179.16,147.91c-.07-.67.16-.88.54-1.32s.28-.51.32-1a3.7,3.7,0,0,0,.14-1.15l-.71-1.1c-.87-.23-.63.73-.52,1.06a2.36,2.36,0,0,1,.16,1.69c-.39.74-1.07,1.19-.67,2.17a.55.55,0,0,0,.67-.36"/><path class="cls-39" d="M176.84,150.17a6.36,6.36,0,0,1,.11-1.43l-.73-.08-.32.24-.43-.1c-.37,0-.43-.2-.66.17l0,.75c.22.51,1.67,1,2,.32"/><path class="cls-40" d="M94.29,87.58a14.64,14.64,0,0,1-.82,2c-.68-.39-.55-1.92-.93-2.55-1.44-.55-1.44.69-1.44,1.86S91,91,90.92,92.07c-.1,2.24.63,5.09,2.3,6.64.82.77,1.46,1.1,1.4,2.37l-.13,1.26c-.18.4-.61.52-.86.86a2,2,0,0,0-.38,1.3c0,.7.17.81.87.76a9.73,9.73,0,0,0,3.2-.82c.74-.33,1.89-1.11,2.44-.13a6.15,6.15,0,0,1,.3,2.4,10.44,10.44,0,0,1,0,1.55,19.12,19.12,0,0,1-.55,4.42,48.67,48.67,0,0,1-1.34,4.78,20.8,20.8,0,0,1-1,3.27c-.6,1.13-1.61,1.92-2.3,3A28.82,28.82,0,0,0,93,127.15c-1.56,3.4-1.68,7.1-2.19,10.75-.11.84-.41,2.43.94,2.32.5,0,1.23-.74,1,.1-.11.45-.56,1-.73,1.43a14.54,14.54,0,0,0-.94,4.17c-.08,1.69.12,3.43-.06,5.12a53.57,53.57,0,0,0-.18,10,3.32,3.32,0,0,0,.76,2.12l.8.41a1.63,1.63,0,0,0,1,.36,5.53,5.53,0,0,1,.46,2,3.92,3.92,0,0,0,.79,2.15,1.82,1.82,0,0,1,.13,2.21,10.69,10.69,0,0,1-3.86,3.86,5.5,5.5,0,0,1-1.79,1c-.6.1-1.22-.06-1.51.63a3.15,3.15,0,0,0,0,2h0c-1.44-.05-2.9.16-4.37.1a8.35,8.35,0,0,0-.2-1.57c0-.54-.21-1.08-.26-1.57-.15-1.31-1.36-1.82-2.11-2.77a17.69,17.69,0,0,1-2.69-6.3,20.87,20.87,0,0,1-.57-2.56c-.08-.53,0-1.07-.09-1.58s-.35-.92-.48-1.44a24.69,24.69,0,0,1-.18-3.42,5.75,5.75,0,0,0-.89-2.24c-.85-1.54-.43-3.16-.71-4.87a16.87,16.87,0,0,0-.9-2.91,11.34,11.34,0,0,0-1.11-2.61c-1.27-1.86-2.21-3.45-4.42-4.24-2-.72-3.94,1.6-4.65,3.24-.25.56-.49,1.12-.71,1.67a8.07,8.07,0,0,0-.88,2c0,.5.45,1,.64,1.54a5.09,5.09,0,0,1-.08,2.41c-.25,1.27-.45,2.57-.62,3.86-.13,1-.4,1.86-.45,2.83-.09,1.69-.25,3.42-.49,5.1-.1,1-.13,2.76-1.12,3.28-.39,1.23-.12,2.62-.39,3.9-.15.75-1,2.52-.54,3.29.64-.06,1.05-.83,1.61-.8a6.27,6.27,0,0,1,.2,1.65c0,.65.47,1.86,0,2.09-.84.41-3.25-.15-3.92-.66-.31-.25-.42-.83-1-.51s-.11.65-1,.61h-.73l-.33.56-1-.57c-.39,0-.92.39-1-.19l.34-.71c-.08-.53-.53-.42-.89-.45s-.3.17-.68-.14l-.43-.58c-.25-.32-.83-.64-.56-1.1l.61-.1.12-.67c.1-.47.27-1.35,1-1.24s.73.79.53,1.36-1,.85-.92,1.38c.06.79.93.54.88-.25.51-.11.74,1.66,1.45.63.29-.41-.43-1.61-.58-2.09a15.09,15.09,0,0,1-.38-5.07,36.94,36.94,0,0,1,.31-4.81,23.1,23.1,0,0,1,.89-3.36c.63-2.12.58-4.34,1-6.51s1.17-4,1.71-6a24.18,24.18,0,0,1,2.06-5.75,19.94,19.94,0,0,1,1.83-3.39,10.36,10.36,0,0,1,2.73-1.88,8,8,0,0,1,4.09-1,6.19,6.19,0,0,1,5.43,2.44c.72.83.87,1.89,1.44,2.8.7,1.15,1.69,2,2.43,3.08A5.8,5.8,0,0,0,80,144a14.63,14.63,0,0,1,1.79.65c.7.32,1.72.85,2.43.36a4,4,0,0,0,1.52-1.87,16.51,16.51,0,0,0,.12-2.38,2.31,2.31,0,0,0-.41-1.88c-.43-.55-1.32-1.24-1.47-1.95s.36-1.58.48-2.34a4.23,4.23,0,0,0-2.06-4.74,18,18,0,0,0-3-2c-2.54-1.06-5.27-2-7.31-4.16a20.23,20.23,0,0,1-4-6.28c-1-2.52-.76-4.8-.14-7.45a20.41,20.41,0,0,0,.52-4.26c1.78-.23.79.95.61,1.86-.12.54.19,1,.15,1.34,0,.57-.2,1.15-.27,1.78-.43,3.16,2.14,7,3.68,9.58-2,.22-1.08-.32-1.69-.65.64,1.39,2.92,1.48,3.1,3.08-.56-.14-.59.37-1.12.19.7,1,2.9,1.58,4,2.28a15.39,15.39,0,0,0,5,2c1,.23,2.21.64,2.65-.37.35-.79-.21-2.09-.24-2.88a32,32,0,0,1,.52-6.59c.14-.93.78-2.47.61-3.41-.1-.47-.66-.89-.77-1.37a6,6,0,0,1,0-1.63,29,29,0,0,1,1.14-5.62c.48-1.95.51-4,1.11-5.9s.7-3.59,1.11-5.45,1.25-3.39,1.8-5.19c.45-1.45,1.91-3.32,1.75-4.83.81.08,2.72.59,3.23,1.27s-.16,1.6-.51,2.41"/><path class="cls-7" d="M56.6,149.38l-.09.42a6.92,6.92,0,0,1-1.3,2.27c-.5.72-.26,1.82-.34,2.67-.22,2.28-.83,4.43-1.26,6.63a28.89,28.89,0,0,0-.69,4.13,24,24,0,0,0,.18,3.75,6.6,6.6,0,0,0,.4,1.57c.21.5.7.91.77,1.46s-.1.84.17,1.32a1.07,1.07,0,0,0,1.17.55c1-.06,1.75-.26,2.49.64.51.58,1.82,1.58,2.4.46.28-.54.16-1.75-.55-1.91-.43-.1-.8.24-1.15-.11-.55-.62-.12-2.67.07-3.36a10.44,10.44,0,0,1,.55-2.12,6.28,6.28,0,0,0,.74-2.4,13.81,13.81,0,0,0-.3-2.36,5.62,5.62,0,0,1,.17-1.69,11.77,11.77,0,0,0,.13-2.47,15.4,15.4,0,0,0-.56,2c-.7-1.1-.25-2.57,0-3.82.3-1.61.27-3.21.72-4.83a56,56,0,0,1,1.62-5.55c.29-.73.53-1.52.87-2.28.23-.56,1-1.89.88-2.48v0a13.24,13.24,0,0,1-1.48,2.69A17.85,17.85,0,0,0,61,148.17c-.47,2-.81,4-1.11,5.92-.4,2.47-1.36,4.8-1.62,7.25l-.15.86a11.28,11.28,0,0,1-.67-2.87,17.18,17.18,0,0,1,.63-4,10.66,10.66,0,0,0-.7,3.3,9.36,9.36,0,0,1-.49,1.81,12.11,12.11,0,0,0-.27,1.68c0,.59,0,1.68-.49,2.07-.55-2.4.31-5,.74-7.35-.22.37-.49,1.49-1,1.28-.74-.31-.33-2.12-.22-2.63.29-1.29.84-2.54,1-3.86a18.39,18.39,0,0,0,.06-2.31"/><path class="cls-33" d="M102.33,101c.53.7-.38,2-.07,2.82a9.58,9.58,0,0,0,1.5,2.8c1.44-.23,1.49-2.88,2.41-3.74,1.92-1.76,2,1,1.78,2.35-.1.54-.61,2.26,0,2.63.38.23,2.4-.75,2.92-.84a8.6,8.6,0,0,1,5.25.68c1.46.85,2.08,2.65,3.11,3.9s2,2,3,3c2.3,2.67,3.2,6.46,3.78,9.82a7.56,7.56,0,0,0,1.13,3.45c.42.53,1.15.78,1.57,1.29.65.74.39.83-.27,1.65-1-.57-1.08,2.59-1.12,3.18a7.69,7.69,0,0,0-.12,1.78c.12.54.47.94.41,1.56l-.28,0c-.41,1.16-.47,2.42-.78,3.59a28.48,28.48,0,0,0-1.19,3.53,40.35,40.35,0,0,0-.1,5.07c0,2-.19,4-.31,6,0,.89,0,1.81-.08,2.7s-.5,1.81-.64,2.76c-.18,1.15-.08,2.39-.19,3.55a30.19,30.19,0,0,0,0,4.16,6.28,6.28,0,0,1,0,1.58c-.15.52-.62.78-.64,1.41-.06.78.47,1,.64,1.66-.51,0-.66.32-1.11.41a8.89,8.89,0,0,1-1.67-.12c-.26-.82-.92-1.47-1.16-2.35s-.33-1.83-.46-2.68a40.65,40.65,0,0,1-.64-5.92c0-1.88.73-3.33.74-5.19,0-2,0-4.07.09-6.06a34.85,34.85,0,0,0-.09-4.07c-.1-1.93.76-3.62.76-5.53a5.68,5.68,0,0,1,.27-2.46,6.83,6.83,0,0,0,1-2.58,14.92,14.92,0,0,0-.19-4.4c-.2-1.13-.24-2.35-.53-3.47s-.89-2-1.23-3c-.72-2.26-.28-4.59-1.35-6.71-1.45-2.9-1.7-6.45-5-7.7a7.63,7.63,0,0,0-4.59-.44c-1.58.31-2.23.68-2.84,2.21a29.77,29.77,0,0,1-4.08,7,19.46,19.46,0,0,0-2.23,4.71,19.34,19.34,0,0,0-1.25,2.78,8.93,8.93,0,0,0,.09,2.34,24.25,24.25,0,0,1,.1,4.86c-.3,2.89-1.37,5.77-2,8.65a21.62,21.62,0,0,1-1.17,4c-.63,1.55-.43,3.14-.53,4.78a46.5,46.5,0,0,1-.57,5,6.93,6.93,0,0,0-.17,2.52c.14.7.64,1.17.75,1.88s-.11,1.59.07,2.37a9.44,9.44,0,0,0,1.24,2.23c.39.64,1.16,1.16,1.51,1.77s.07,1-.27,1.64a14.42,14.42,0,0,0-.79,1.37,3.33,3.33,0,0,0-2-.1c.15-.82.85-1.29.66-2.24-.13-.56-.69-1-.93-1.51-.63-1.34-.13-2.75-1.34-3.64s-2.06-1.29-2.16-3.1.1-3.57.1-5.35c0-3.32.4-6.43.56-9.73a7.67,7.67,0,0,1,1.15-3.66c.34-.62.9-1.41.25-2s-1.29.08-1.76-.48-.19-2.38-.17-3a37.18,37.18,0,0,1,1.26-6.08,19.39,19.39,0,0,1,2.75-6.16c.51-.79,1.25-1.42,1.76-2.22a10.89,10.89,0,0,0,.94-2.69,25.38,25.38,0,0,1,1-2.41,8.07,8.07,0,0,0,.44-2.19c.2-1.78,1-3.45,1.23-5.22a10.61,10.61,0,0,0-.08-4.54,1.91,1.91,0,0,0-1.8-1.46c-1,0-1.8.86-2.81,1.13-.72.19-2.83.32-1.78-.86s2.66-1.4,1.21-3a8.12,8.12,0,0,1-.9-1.51c-.63-1-1.72-1.7-2.27-2.82a9.13,9.13,0,0,1-.65-4.21c0-1.15-.31-3.29.47-4.15.51.43.53.94.83,1.42s.66.66.84,1.12c.36,1,0,2.62.19,3.66.38,2.56,2.42,3.93,3.76,5.64.73.92,1,1,2.24.86.85-.1,2-.47,2.63.35"/><path class="cls-41" d="M88.08,177.88c1.27-.72,4.59,0,6.13.1a56.51,56.51,0,0,0,7-.46c2.54-.21,5,.4,7.57.25l0-.42c.53,0,2.41.26,2.82-.09s.17-1.67.17-2.1c0-.78,0-1.57,0-2.34s.42-1.46.49-2.13c.1-1-.41-2.46-.41-3.69,0-.7.24-1.35.19-2-.06-1.12-.57-2-.52-3.18a30.19,30.19,0,0,0,.06-4.31,18.11,18.11,0,0,1,.45-6.78,24.07,24.07,0,0,0,.38-6.47c0-3.89.62-7.69.66-11.57,0-1.91.57-4.74-.31-6.42-.31-.61-.9-.91-.94-1.71s.19-1.12-.23-2a2.44,2.44,0,0,0-3.5-1.14c-1.41.88-1.71,2.54-2.16,4a42.13,42.13,0,0,0-1.32,5.24,39.44,39.44,0,0,0-.64,6,30,30,0,0,0,.19,4.69c.13.82.5,1.67.55,2.45a9.92,9.92,0,0,1-.37,2.24c-.24,1.29-.45,2.61-.59,3.94-.1.91,0,1.87-.07,2.82a49,49,0,0,1-1.49,8.62,5.38,5.38,0,0,1-1.11,2.33,14.34,14.34,0,0,0-1.36,2.61,19.44,19.44,0,0,1-1.7,2.33,15.53,15.53,0,0,1-1.37,2.65c-.87-.27-2.51-.25-2.21,1.08s1.59.28,2.4.05a30.54,30.54,0,0,0,3.83-.86c.1-1.38-1.44-2.05-2.43-2.58a3.36,3.36,0,0,1-2.79,2.68c-1.4.32-2,1-3.19,1.75-1.73,1.07-4.85,1.94-4.42,4.54"/><path class="cls-42" d="M102.8,168.52c-2.88-.39-1.34,1.22.29,1.12.59,0,1.09-.34.74-.85-.22-.31-1.22-.4-1.58-.46"/><path class="cls-16" d="M120.91,173.86c0,1-1.8.74-2.45.74s-1-.16-1.49-.2c-.73,0-.31.07-.75.39s-.17.42-.85.48a3.12,3.12,0,0,1-1.21-.21,3.07,3.07,0,0,1-2-1.6c-.24-.68.18-1.13.35-1.77a15.18,15.18,0,0,0,.39-2.06c.16-1.48-.16-3.06.07-4.59.13-.93.65-4.07-.33-4.49-.5.69-.2,1.94-.58,2.77-.58-1.94,0-3.9,0-5.9a27.57,27.57,0,0,1,.16-5.15,20.38,20.38,0,0,0,.69-5.14,27.7,27.7,0,0,1,.16-6.48c.7-3.31.25-6.5.58-9.85a12.16,12.16,0,0,0,.1-2.44,12.68,12.68,0,0,0-.76-2c-.23-.74-.11-1.56-.41-2.34s-.51-1.31-.77-1.91-1.13-1.83-2-2-2,1.1-2.61,1.75c-1.75,2-2.29,4.58-2.83,7.08-.42,2-.31,4.07-.74,6a10.43,10.43,0,0,0,0,4.84c.86,3.4.16,6.87-.49,10.23a24.37,24.37,0,0,0-.21,5,18,18,0,0,1-3.35,10.23c-.42.65-.83,1.77-1.6,2.19-.42-.55-.62-1.27-1.06-1.8s-.8-.64-1.05-1.26c-.46-1.09-.23-2.34-.61-3.46-.29-.91-.78-1.48-.65-2.44s.74-1.9.74-3a30.34,30.34,0,0,1,.19-4.66c.13-.75.1-1.6.28-2.35s.52-1.42.68-2.25c.6-3.14,1.89-6.14,2.34-9.36a37,37,0,0,0,.09-6.67c-.12-2.31.63-3.62,1.42-5.72a12.51,12.51,0,0,1,1.85-3.32c1.78-2.43,2.71-6.11,5.18-7.94a6.67,6.67,0,0,1,7.32-.24,4.75,4.75,0,0,1,2,3.1,28.39,28.39,0,0,0,1.64,4c.62,1.47.31,3.18.62,4.73a16.6,16.6,0,0,0,1.46,3.7c1.25,2.8,2,7.29.52,10.13a8.76,8.76,0,0,0-.93,1.63,11.79,11.79,0,0,0-.14,2.25c-.16,1.77-.46,3.53-.46,5.31,0,2.9-.3,5.78-.27,8.68s-.5,5.82-.47,8.74a46.94,46.94,0,0,0,.64,4.8,9.93,9.93,0,0,0,1.43,3.84l.27-.08"/><path class="cls-13" d="M88.83,85a6,6,0,0,0-.87,2.6,14,14,0,0,1-.26,2.91c-.27.9-.83,1.7-1.15,2.6-1.43,3.87-.19,8.61-1.84,12.29-.32.69-.82,1.57-1.76,1.1-.12.92.8,1.59,1.06,2.39a7.14,7.14,0,0,1,.29,3.35c-.65,1.76-3.19.84-4.26-.13s-1.86-2.7-3.09-3.77a17.89,17.89,0,0,0-4.41-2.48,4,4,0,0,0-3-.37c-3.2.81-2.88,5.42-2.88,8a12.79,12.79,0,0,0,1.72,5.91,10.16,10.16,0,0,0,3.28,4.2c1.65,1.19,2.89,2.69,4.76,3.41a24,24,0,0,1,3.77,1.84A3.29,3.29,0,0,1,81.51,130c1.32,2.14.49,5.09,2.12,7.14.5.62,1.26.94,1.67,1.7a5.92,5.92,0,0,1,.38,2.89c-.23,4.78-6.09,2.38-8.16.24a22.81,22.81,0,0,1-1.83-2.5,22,22,0,0,1-1.93-2.34c-.48-.86-.58-1.68-1.35-2.37a7.45,7.45,0,0,0-2.65-1.38,13.27,13.27,0,0,0-6-.31c-3.77.74-7.35,5.59-8.35,9.09-.53,1.89-1.7,3.94-1.63,6.06a24.18,24.18,0,0,1,0,5.75c-.38,1.88-1.1,3.64-1.6,5.51-.8,3-.65,5.73-.63,8.88,0,1.09-.18,1-.65,1.7l-.6.53-.37.89c-.52.6-1.17-.26-.85,1.1.09.35.76,1,1,1.38-5,1.29-3.64-8-3.36-10.49a35,35,0,0,1,.74-3.48c.27-1.31.16-2.76.38-4.15.32-2,1-3.78,1-6a40.64,40.64,0,0,1,.74-6c.27-1.74,1.37-3.28,2.22-4.88,1.36-2.54,2.77-5.25,5-7.2a28.93,28.93,0,0,1,3.41-2c1.27-.88,1.72-1.39,3.39-1.39,1,0,2-.08,3.06,0A16.52,16.52,0,0,1,71.52,130c2.4,1.15,5.7,4.32,6.41,6.93.17-1.71-.45-4.21-1.88-4.83a30.85,30.85,0,0,1-4.73-2.41c-4.07-2.64-7.46-5.26-8.81-10.22-1.26-4.6-1.4-10.2.5-14.64,1-2.22,2.11-3.87,4.4-4.77a10.18,10.18,0,0,1,6-.36c2.18.62,2.89,2.37,4.73,3.23.62-1.22,0-3,.27-4.28.3-1.55,1.29-2.87,1.56-4.42a18.35,18.35,0,0,1,.68-2.69c.27-.83.15-1.88.5-2.72.29-.66.71-1.66,1-2.24.46-.83,1.27-.83,2.1-1.4s1.59-1.31,2.37-1.88c.39-.28,1.57-1.77,1.92-1.86l.08-.11L90,82.67c.22.74-.86,1.78-1.2,2.36"/><path class="cls-43" d="M62.77,177.13l.53,0,0,.63c1.9.09,3.85-.26,5.79-.09a17.08,17.08,0,0,0,4.24.28,5.08,5.08,0,0,0,2-.91c1-.6,3-1.45,3.25-2.55s-1-2.55-1.31-3.65a12.77,12.77,0,0,1-.46-2c-.1-.71,0-1.58-.13-2.28s-.63-1.2-.63-2c0-.94.11-.75.94-1.14a2.78,2.78,0,0,0-.25-1.32,32.09,32.09,0,0,1-.65-5.1,8.85,8.85,0,0,0-.19-2.47c-.24-.61-.94-.94-1.15-1.62a17,17,0,0,1-.2-2.61,12.36,12.36,0,0,0-1.39-4.62c-.41-.7-.89-1.46-1.36-2.11A10.35,10.35,0,0,0,70,141.22a4.2,4.2,0,0,0-4.26,0c-1.12.83-1.66,2.46-2.06,3.74-.44,1.44-.79,2.1-.32,3.6.53,1.8-.31,3.33-.58,5.15s-.23,3.64-.4,5.44a25.43,25.43,0,0,1-.94,6.29c-.39,1-1.27,1.59-1.49,2.71a21.66,21.66,0,0,0,0,3.73c0-.36.73-.51,1-.4.4.17.49.92.57,1.26a20.25,20.25,0,0,1,.27,3.27c.83-.06,1.09.36,1,1.14"/><path class="cls-3" d="M66.32,142.62c-1,1.14-1.13,3.06-1.13,4.5a4.18,4.18,0,0,0,1.5,3,2.21,2.21,0,0,1,.84,2.09c-.06,1.35-.1,2.73-.1,4.1a39.77,39.77,0,0,0,1.39,9.78,49,49,0,0,0,1.07,5,5,5,0,0,0,1.2,2.27c.57.35,1.71.13,2.41.17-.14.62-1.38,1.65-.74,2.35.79.88,2.81-.52,3.57-.76.09,1-2.09,1.77-2.84,2a9.52,9.52,0,0,1-4.37.1c-1.37-.21-3.86.14-4.87-.66-1.35-1.08-2.16-1.18-2.16-3.2a5.74,5.74,0,0,0-.44-2.62,4.05,4.05,0,0,1-.75-2.14c.17-1.49,1.61-2.75,1.82-4.35.16-1.14-.21-2.41,0-3.54s1.35-2.08,1.6-3.29c.43-1.89-.29-3.94-.07-5.91.17-1.71-.72-3.15-.5-4.86.26-1.86.47-3.38,2.44-3.86"/><path class="cls-41" d="M73.73,148.44c-.74.77,0,1.4.15,2.06-.71.55-2-.69-1.77.63s1.73,1.88,2.18,2.95c.89,2.13-2.39,4.82-1,6.66.56.73.92.94.86,2a13.34,13.34,0,0,0-.08,2.89c.12.83-.52,1.41-.48,2.09s.83,1.11.83,2-.41,1.17.09,1.81a1.79,1.79,0,0,0,1.88.52,7.9,7.9,0,0,1,1.48,2.29c.36,1-.45,1-1.12,1.58a3.52,3.52,0,0,1-.3-1c-1-.16-1.78,1.08-2.78,1-2.07-.05.73-1.57.52-2.25-1-.52-2-.23-3.06-.5a18.72,18.72,0,0,1-1.79-4.86c-.32-1.83-.33-3.75-.76-5.54a23.84,23.84,0,0,1-.82-5.18c0-1.86.46-4.13.18-6-.21-1.34-1.57-2.35-2-3.66s0-2.94.35-4.3c.23-.86,0-1.3,1-1.68a2.38,2.38,0,0,1,2.17.16,5.76,5.76,0,0,1,2.49,3.22c.53,1.22,1.82,2,1.73,3.46"/><path class="cls-42" d="M97.69,170.56a3.51,3.51,0,0,1,.77-2,13,13,0,0,1,2.76,2.4,12.15,12.15,0,0,1-3.42,1.59,6.75,6.75,0,0,1-1.79.6,11.7,11.7,0,0,1-1.86-.68,1.13,1.13,0,0,1,.46-1.09,3.52,3.52,0,0,0,3-.48"/><path class="cls-16" d="M93.13,105.12l.59.3c-.08.73-.89,1.37-1.33,2-.63.93-1.21,1.89-1.77,2.85-.91,1.53-1.85,3.07-1.89,4.76a2.87,2.87,0,0,1-.78,2.21,5.45,5.45,0,0,0-1.09,2.3c-.29,1.73.8,1.66,1.25,2.72.15.38-.13,1,0,1.29.2.62.52.54.75,1,.52,1.14-.17,1.48-1,2.45a10.92,10.92,0,0,0-1.56,2.4c0-.88,1.24-5.14-1.37-4-1.43-4.16,1.5-8.77,1-13-.1-.78-.47-1.53-.15-2.34s1.13-1.43,1.58-2.15a7.7,7.7,0,0,0,1.07-3.26,14.92,14.92,0,0,1,.43-2.94,11.31,11.31,0,0,0,1-3.65,50.49,50.49,0,0,1,.64-6.35,16.33,16.33,0,0,0,1.26,5.6,4.68,4.68,0,0,0,1,2c.87,1,1.76,1.12,1.49,2.56-.23,1.22-1.25,2-1.13,3.33"/><path class="cls-16" d="M106.62,115.9a5.72,5.72,0,0,1,4.11-.92c1.17.3,2.23,1.56,3.1,2.29a4.87,4.87,0,0,0-2,.72,7,7,0,0,1,3.45,1c-.73.8.64,1.45,1.06,2a6.39,6.39,0,0,1,1,2.26c.52,1.9,1.45,3.63,1.86,5.51s.1,4.63,0,6.74a28.2,28.2,0,0,1-.38,3.71,9.23,9.23,0,0,0-.49,3c-.77-.93-.73-2.31-1-3.42a4.52,4.52,0,0,0-1.14,2.54c.15-2.2-.17-4.84-.24-7.1-.08-1.85,0-3.81-.26-5.59-1.24,7.23-.24,14.44-.77,21.71a10.57,10.57,0,0,1-1.09-2.09,30.23,30.23,0,0,0-.39,10.47c.21,1.41.94,2.84.76,4.39s-.38,3.15-.63,4.69c.1-.62,1-1.79,1.73-1.87.87-.1.7.87,1.4.53.59.36,1.09,1.39,1.6,2,.18-1-.42-2-.36-3.1,0-.87.45-1.71.49-2.62.14-2.09.15-4,.25-6.13.21-4.08.07-8.25.51-12.25a17.84,17.84,0,0,1,1.22-5.42,12.35,12.35,0,0,0,.9-6.1c-.31-2.41-1.9-4-2.5-6.25-.73-2.76-.32-5.27-1.58-8-.61-1.25-.74-2.67-1.62-3.84-1.34-1.72-2.1-1.94-4.14-2.34-1.86-.35-5.68.85-5.4,3.4l.49,0"/><path class="cls-16" d="M106.62,122a8.43,8.43,0,0,0-4.49,7.21,46.5,46.5,0,0,1-.23,4.8c-.23,1.16-.83,2.31-1.15,3.49-.56,2-1.76,4.28-1.87,6.37a34.82,34.82,0,0,1-.72,6.27,27,27,0,0,0-1.15,7.2,7.86,7.86,0,0,1,.75-1A5.74,5.74,0,0,0,98.2,158c1.3-2,1.82-5.33,2.5-7.63a28.57,28.57,0,0,0,1.16-7c-.72,3,.06,6.42-.51,9.5-.31,1.7-.7,3.38-1,5.06a29.58,29.58,0,0,1-1,4c-.58,1.63-1.6,2.82-1.48,4.73l.35.36c1.68-1.19,2.36-3.9,3.16-5.69s.86-3.81,1.09-5.91c.39-3.94,1-7.93,1-11.87,0-1.91-.51-3.67-.51-5.63a20.85,20.85,0,0,1,.5-5c.44-1.78.15-3.92.62-5.74a14.39,14.39,0,0,1,2.25-4.88"/><path class="cls-44" d="M79.53,144.49a20,20,0,0,1,2.42,2.84c.54,1,.49,2.17,1.11,3.15a6.62,6.62,0,0,1,1.26,3.36c.11,1.25.23,2.51.46,3.76-.78-.91-1.95-1.79-2.37-2.95,0,1.28.21,2.45.27,3.69-1.91-1.32-1-4-1.41-6-.32-1.53-.6-3.82-2.09-4.74a2.25,2.25,0,0,1,0,1c-.48-2.54-2.31-5.29-3.86-7.27-1.38-1.79-5.4-3.65-5.67-6a7.43,7.43,0,0,0-1.33-.52c1.7.25,3.25.62,4.25,2,.69.92,1.36,1.92,2.09,2.77a53,53,0,0,0,5,4.88"/><path class="cls-7" d="M71,139.8a3.43,3.43,0,0,0-3.48-.27,1.28,1.28,0,0,1,.59-.82c-.78-.23-1.68-.3-2.39-.54a7.17,7.17,0,0,1,3.51-.76c-1.4-1.12-3.89-1.93-5.73-1.16,1.87-.38,4.07-1.2,6-.35a6.52,6.52,0,0,0-3.5-1.22c-1.31,0-2,.71-3.14,1.06,1-1.61,4.21-1.7,5.9-1.2s2.28,2.24,3.4,3.34c2.63,2.67,5.07,4.44,6.21,8,.32,1,.75,2.07,1.1,3a15.45,15.45,0,0,0,0-1.56c1.65,1.15,2.07,4.21,2.13,6.08s0,4.52,1.36,5.73c0-.42.28-.51.42-.84.39.29.42.68.68,1.12.69,1.22,1.5,2.34,2.2,3.54a6.32,6.32,0,0,1,.81,2,15.1,15.1,0,0,0,1.15,4.1c.69,1.21,1.31,1.24,2.52.65,1.45-.71,1.66-1.59,2.2-3,.13,1.7-.68,4.85-2.56,5.37a7.69,7.69,0,0,0,2.83-2.23,4.09,4.09,0,0,1-2.1,3.33,3.61,3.61,0,0,0,1.18-.36,6.05,6.05,0,0,1-5.44,1.64c-1.28-.28-3.75-.88-3.88-2.5l.84,0c-1.5-1.22-3.25-2.34-4.24-4.22s-.89-4.13-1.24-6c-.69-3.7-1.32-7.59-2.1-11.27s-2.06-8.17-5.54-10.6"/><path class="cls-16" d="M95.68,119.89c0,2.65-2.37,5.42-4.38,6.85a22.94,22.94,0,0,0-2.74,2c-.35.34-.87.48-.89,1,0,.73.52.46.73.92l.28,1,.63.94c.31.78.52,1.45-.34,2-2.12,1.43-2.19-1.58-3.4-2.45.77,2.43-1.2,3.6,1.21,5.7,1,.84,1.88,1.19,1.65,2.65a26.68,26.68,0,0,1-1,2.78,5.23,5.23,0,0,1-1.79,2.7,3.1,3.1,0,0,0-1.11,2.41c.09,1,.9,1.71,1.23,2.63s.71,1.57,1.14,2.5c1.5,3.21,1.93,7.32,3.24,10.51-.87,1.06-1.48,1.66-1.11,3.33.25,1.09,1.43,2.13,2.63,1,.34-.31,1.59-3,1.34-3.36-.36-.55-1.57.14-2.08-.4l-.27-1.48a101.19,101.19,0,0,1-.79-14.67,18.52,18.52,0,0,1,.54-3.73c.18-.65.45-1.37.7-2,.41-1,.55-.64.06-1.4-.8-1.26-1.42-1.18-1.39-3a13,13,0,0,1,.73-3c.31-1.28,0-2.71.25-4A21.55,21.55,0,0,1,92,128c.82-1.9,2.47-3.34,3.08-5.33a12.45,12.45,0,0,1,.48-1.89"/><path class="cls-7" d="M73.73,111.53A5.76,5.76,0,0,0,75.91,115c.8.57,2.52,1.88,3.55,1.42,0,1.52,1.06,1.83,1.37,3.26.22,1.05.74,2.67.25,3.71a36.07,36.07,0,0,1-7.69-5.74,9.66,9.66,0,0,1-2.56-4.59c-.22-1.15-.7-2.34.18-3.17a12.14,12.14,0,0,1,2.23-1.26c.71.52.26,1.88.5,2.64"/><path class="cls-3" d="M98.67,86.82c2.06,1.29,1.61,5,3,6.74,1.22,1.47,2.23.67,1.51-1.1-.49-1.23-1.77-2-2.13-3.36-.59-2.37,2-4.23,4-5.42,2.49-1.46,5.43.47,8.19.29a2.11,2.11,0,0,0-1.63-1.11c-.34-1.7-2.4-1.89-3.65-2.73s-2.27-1.68-3.43-2.5l.27-.7c-.58-.31-.65-.8-.89-1.14,2.57-1.68,4.24-5.54,8.07-4.91l-.4-.29c1.59.12.63.9.93,1.6.47,1.07.19,1.42,1.48,2.12-1.57,2.15,1.7,2.5,3.16,3.7a4.27,4.27,0,0,0-2.88.94c1.73,0,3.06-.27,4.53.93.94.77.42.12,1,1.15-1.48-1.94-2.38-.72-2.76-1,.4.2.88.71,1.23.92-1.66.13-4.52-1.11-6,0,2.71.91,5.6.84,7.82,2.86-2.57,0-4.62-.6-7-.77,1,.57,2.16.7,3.12,1.32-1,.85-3.24.79-4.48,1.66,1.13.33,2.56.12,3.49.81A4.76,4.76,0,0,0,111,88.7l.45.21a15.09,15.09,0,0,0-1.49,1.28c1.94,2.35,2.54,3.9.54,6.56-2.17,2.88-4.19,3-7.66,3.15-3.14.16-5.9,0-7.64-3-1.18-2-1.75-5.81-.79-8,.73-1.71,2.6-3.44,4.3-1.87"/><path class="cls-3" d="M86.12,78.19c-1.6.12-3.94.87-4.49,2.65-.68,2.11.47,3.31,2.35,4.1,1.12-.87.51-1.43.75-1.74.47-.6,1.69-.64,2.18-1.22,1.34-1.57-.51-2.16-.62-3.79"/><path class="cls-45" d="M90.67,72.56s-2.07-3.75,1-5.28,3.77.54,3.77.54.6,2.83,1.37,3.68,4.82,3.9,3.45,7.11a1.58,1.58,0,0,1-.92,1.92,4.28,4.28,0,0,1-4.45-.61c-1.24-1.22-.46-2.82-2.21-3.45s-1.38-1.15-1.48-2a7.61,7.61,0,0,0-.52-1.93"/><path class="cls-12" d="M96.62,70.21c.28.37.86.44,1.12.76l.3.83c.37.48,1.15.73,1.6,1.21,1,1,1,2.84,1.54,4.08.69,1.58,1.65,2.82-.14,4.29-1.23,1-3.39-.06-4.78-.3a.66.66,0,0,0-.74-.56c1.11.21,3.34.66,4.23-.15a4.6,4.6,0,0,0,.73-3.53A8.64,8.64,0,0,0,99,73.94c-.52-.65-1.49-2-2.26-2.25,0-.46-.13-.82-.1-1.29"/><path class="cls-44" d="M133.68,156.76s-3.93,11.81-3.38,15.1,4.12-8,4.12-8,2-9.18-.74-7.12"/><path class="cls-12" d="M130.38,101.59s-5.25-3.75-7.5.75a19.44,19.44,0,0,0,.11,3.51l.26,2s2.25,3.76,3.12,4.26,1.88,1.86,3.75.12a8.16,8.16,0,0,1,4.49-2.38c1.25-.25-2-1.25-4.25-8.26"/><path class="cls-12" d="M132.5,97s-.86-6.5,6-12.52c0,0,1.63-.37,2,.62l1.36,1.15.27,8.74-1.25,1.62a15.23,15.23,0,0,0-2.51,0,4.9,4.9,0,0,0-2.37,1c-.88.62-.88,1.13-.88,1.13Z"/><path class="cls-12" d="M146.27,100.46s-2-.12-.88-3.25a3.64,3.64,0,0,1,3.37-1.88s1.5-.38,1.65,1.75c0,0,1.12,2.88,1.74,3.25a3,3,0,0,1,1.37,3.62l-.5,2.51L151.89,108s-.63,1.88-1.14-.74a2.06,2.06,0,0,0-1.62-1.5s-.25.63-1.5-1.75c0,0-.62-.62.5-.24,0,0,1,.75-1.87-3.25"/><path class="cls-12" d="M147,116.09a4.17,4.17,0,0,1-2.62-2.86c-.75-2.38,2,1.88,2.62,1.88s0,1,0,1"/><path class="cls-46" d="M146.77,100.22s2.61,1.74,1.5-1.14a1.48,1.48,0,0,0-2.27-.37l-.24.63Z"/><path class="cls-47" d="M148.64,103.08s1.25-1.62,2.75-.74,2.12,1.38,1.49,1.62a12.78,12.78,0,0,1-2.49.39l-1.13.12s-1.26.37-.63-1.38"/><path class="cls-47" d="M123,104.22a1.83,1.83,0,0,0,1.62.12,2,2,0,0,1,1.51-.12l-.37-1a.76.76,0,0,1-.88-.87c0-1-1.75.5-1.75.5Z"/><path class="cls-47" d="M127.26,105.71s-1.5.13-1.74.75.37.88.74,1.13,1.74,1.12,2.5.87-.38-.38.12-1.48a2.43,2.43,0,0,0-.12-2.15s-.88-.75-1.62-.49.12,1.36.12,1.36"/><path class="cls-47" d="M132.64,107.34s-1.74-.36-2,.39,1,1,1,1h2Z"/><path class="cls-47" d="M127.5,109.09s1,1.13,1.37,1.64-1.24-.13-1.24-.13-2,.26-2.26-.51,0-1.37,1.38-1.37.74.37.74.37"/><path class="cls-47" d="M134.38,92.83a2.44,2.44,0,0,1,2.27,1.63c.49,1.63.61.38-1.38.38s-2.12-.87-1.88-1.5a.92.92,0,0,1,1-.52"/><path class="cls-47" d="M139.51,88.72s-.13-1.51-.87-1.38-2.26.37-2.26.88,1.25,1,1.64.87a11.87,11.87,0,0,1,2.12,0Z"/><path class="cls-47" d="M137.5,90l-.62.52s1.36.23,1.5.86l.12.62s-3.12.39-3.49-.37-.5-1.76.85-1.63a4.2,4.2,0,0,0,1.63,0"/><path class="cls-47" d="M139.38,92.7s1.26.75.89,1.88c0,0-2.5.25-3.13-.89s.88-1.24.88-1.24Z"/><path class="cls-48" d="M125.91,171.66c-.58-.55-2.47-.82-2.29.15.08.42,1,.65,1.34.62l.78-.39.32-.06Z"/><path class="cls-15" d="M154.19,151.63a4.61,4.61,0,0,0-2.33,3.11c-.19,1.26.08,2.57-.1,3.84a23.28,23.28,0,0,1-1.28,3.77c-.28.87-.13,2.16-.69,2.84.41-.41.69-1,1.19-1.26a5.83,5.83,0,0,1,0,1.58,19.12,19.12,0,0,0,1.55-1.68c.12,1.55-.51,2.63-.94,4a17.32,17.32,0,0,1-1,2.82c-1.14,2.07-2,3.76-4.67,3.77,1.54.1,2.47-2.07,3-3.19.34-.72.49-1.49.89-2.19a7.1,7.1,0,0,0,1-1.72,21.79,21.79,0,0,1-3,3.35c-.74.78-1.67,1.33-2.37,2.11a5.56,5.56,0,0,1,.57-1.63,7.81,7.81,0,0,1-1.3,1.19,6.83,6.83,0,0,0,.92-3.52l-.73.42c.63-2.07,3.17-2.94,3.06-5.24-1,.54-1.63,1.75-2.51,2.4,1-1.58,2.3-2.74,2.83-4.54.5-1.64.62-3.44,1-5.16a9.88,9.88,0,0,1,2.25-4,6.25,6.25,0,0,1,1.57-1.58c.29-.19,1.74-.7,1.7.06l-.86.65"/><path class="cls-15" d="M156,154c1.46,2.15,1,4,1,6.36a13.35,13.35,0,0,0,.84,4.24c.44,1.59.32,3.33.93,4.88.72,1.87,1.75,2.31,3.48,1.88-.06.6-.46,1,0,1.56-1.08,1.27-2.85.22-3.76-.6-1.27-1.14-1.23-2.28-1.51-3.84a43.65,43.65,0,0,1-.8-4.8c-.12-1.74,0-3.39-.23-5.08a23,23,0,0,1-.25-2.47c0-.59.23-1.21.18-1.85"/><path class="cls-7" d="M138.07,161.67c1.31,1.49,1.31,2.95.85,4.94-.42,1.74-.67,3.33.28,5-.62-1.29-1.83-1.69-2-3.4v1.05a46.59,46.59,0,0,1-.09-5.11c-.43,1.31-.76,2.55-1.14,3.8-.22-2.37,1.45-4,2.07-6.07"/><path class="cls-7" d="M138.64,153.59a4.39,4.39,0,0,1,1.13,3c0-2.15,1.74-3.86,1.57-5.91-.85-.31-1.64-.91-2.5-1.12.14.92,1.15,1,1.73,1.61a2.15,2.15,0,0,1-2.2,2l.44.73"/><path class="cls-16" d="M162.09,149.65c.2,1,1.44,1.46,1.8,2.34a7.77,7.77,0,0,1,.06,2.43c0,1.66-.18,3.35-.18,5.09a17.62,17.62,0,0,0,.56,5.16c.47,1.62.59,3.3,1.22,4.87.44,1.14,1.44,3.12.56,4.22s-2.72,1.3-4,1.19c.42-.35,1.5-.58,1.67-1.09-1.47,0-.08-1.82-.08-2.44-.06-1.46-1.11-1.14-2.14-1.52v-.25c1.91-.3,1.34-1.66,1.43-3.19s-.05-3-.13-4.52a59.16,59.16,0,0,1-.21-9.3c.12-1.15-.42-1.87-.63-3"/><path class="cls-16" d="M155.71,162.15c-.87-.76-1.06-2.21-1.42-3a21.07,21.07,0,0,1-.29,5.45,15.65,15.65,0,0,1-1.21,3.93c-1.28,2.38-2,4.5-3.77,6.44.77-.55,1.69-.61,2.37-1.18a7.73,7.73,0,0,0,1.57-2.07c.44-.77.84-1.62,1.22-2.43.27-.63.56-1.95,1-2.24l.17.36c.63-1.08.46-4.2.13-5.44"/><path class="cls-49" d="M155.89,133.53c-2.11.16-5.62,1.88-6.19,4,1.46-.29,3.52-.49,4.78-1.2-.42.7-1.18,1.15-1.64,1.85a10.06,10.06,0,0,0-1,2.64,8.4,8.4,0,0,1-1.77,2.91c-.62.69-1.53,1-2.12,1.7-.74.88-2.21,3-1.91,4.21.14.6.94,1,1.23,1.61s.42,1.24.75,1.82c-.09-1.3.24-2.39-.17-3.62-.33-1.06-.36-1.13.59-1.88a20.69,20.69,0,0,0,3.49-3.76c1-1.34,1.6-2.83,2.63-4.14.55-.7,1.08-1.33,1.66-2s1.14-.89,1.56-1.43c1-1.23-1.09-3.53-1.88-2.62"/><path class="cls-50" d="M146,131.92c-.47,0-1.2.54-1.15,1.07s.91.27.22,1.26c.56.53-.62,1.17-.95,1.61a9.14,9.14,0,0,0-.91,1.93c-.16-1.17.43-2.36.43-3.44l-.28-.93c.08-.58.26-.34.47-.72s.52-1.28,1.11-1.46.81.21,1.33.49"/><path class="cls-49" d="M137.5,155.19a7.77,7.77,0,0,1-.28,4.87,24.56,24.56,0,0,0-1.13,5.6,38.5,38.5,0,0,1,1.89-4.48c.12.61.8,1.27,1.12,2a10,10,0,0,1-.1-2.3c-.08-.48-.27-.7-.38-1.14a2.66,2.66,0,0,1,.15-1.86c.56-1.54-.06-2.62-1.38-3.75,0,.49-.09,1,.2,1.38"/><path class="cls-51" d="M29.25,95.56a2.38,2.38,0,0,0,1.12-2c.22-1.16.23-1.79,1.14-2.56a6.15,6.15,0,0,1,1.44-.9c.7-.26,1.47-.14,2.11-.56l-.52-.31a6.31,6.31,0,0,1,1.77-.19l0-.34c.44-.25.63.12,1,.15l.46.21.55-.32a16,16,0,0,1,2.06.79c1.93.58,2.52,1.74,3.62,3.25.52-.22.42-.85,1-1.14s1,.08,1.45.52c.83.78.68.59,0,1.39s-.42.85.16,1.42c1,1.08,1.75,1.31,1.42,2.88a9,9,0,0,0-.08,3.93c1,.18,1.42-1.78,1.84-2.46a23.75,23.75,0,0,1,2.16-2.51c1.52-1.81,2.4-4.15,3.53-6.16.51.17,1.67-.1,2.1.19s.66,1.76.76,2.33a5.86,5.86,0,0,1-1.4,5.13c-1,1.21-2.26,2.27-2.32,3.87-.06.83,0,1.67,0,2.53a10.57,10.57,0,0,1-.9,2.43c-.34,1.1.39,1,.49,2,0,.45,0,1.49-.35,1.76-.6-.76-1.06-.42-1.3,0a7.64,7.64,0,0,0-1,1.51c-.3,1,.64,2.68-.3,3.23a20.79,20.79,0,0,1-1.37,4.47,14.74,14.74,0,0,1-.78,2.43c-.58,1.1-.83,0-1.6.54-.35.23-.49,1.84-.62,2.28-.22.92.11,1.14.17,2l-.36,1a21.57,21.57,0,0,0-.6,2.46,8,8,0,0,1-1,2.23c-.46.71-.63,1-1.34,1.2a8,8,0,0,1-1.88,0c-.16-1.88-1.32-3.34-1.89-5.06-.35-1.08-.22-3.23-1.77-3.47s-2.61.78-3.47-1.11A1.3,1.3,0,0,1,35,123c.62-1,.68-1-.09-1.85-1-1.17-.22-.62,0-1.86A3.43,3.43,0,0,0,34,117c.6-1.12-.34-1.57-1.16-2.19s-1.11-.86-.91-1.93c.25-1.39,1.18-1.12,2.33-1,2.65.22,1.25-2,.84-3.47-.35-1.25-.2-2.63-.56-3.85a10.08,10.08,0,0,0-1.3-3.39,3,3,0,0,0-2.46-1.45c.33-1.76-1-2.59-1.52-4.14"/><path class="cls-52" d="M36.6,95c-.29,4.1,3,8.14,3.73,12,.6,3.14-.47,6-.47,9.09-.12-2.41,1-4.24,2.15-6.18s2-3.83,4.42-4.45c-1.47,2.81-3.12,5.28-3.82,8.41-.57,2.54.05,5.36-1,7.74a12.33,12.33,0,0,0-.83,6.76,9.22,9.22,0,0,0,.51,2.71c.27.73,1.14,2.18.73,3l0,.36c-.82,0-2.14.44-2.74-.1s-.54-2.16-.38-2.76c.26-.94.82-1.27.88-2.37a3.56,3.56,0,0,0-.78-2.6c-.63-1-.94-1.39-2.21-1.38s-1.57.46-2-.9c-.57-1.81.72-3.69.62-5.5a8,8,0,0,0-1-3.12c-.58-1-2.31-1.15-2.66-2-.46-1.09,1.31-1.41,2.15-1.39a4.15,4.15,0,0,1,2.63,1.25c1.25.94.94,1.53,1.53,2.71s1,.65.94-.59a6.91,6.91,0,0,1,.15-2.87,9.39,9.39,0,0,0,.63-3.13c-.06-4.89-3.1-9.2-3.13-14.15"/><path class="cls-6" d="M47.22,127.34a9.53,9.53,0,0,1-.76,1.82A10.35,10.35,0,0,0,46,131a7,7,0,0,1-1,1.82c-.29.5-1,1.26-1,1.85,1.79.61,2.72-3.9,2.89-4.91.1-.66.57-1.82.31-2.44"/><path class="cls-53" d="M45.41,163.79c.29.84-.42,1.76.12,2.83a2.56,2.56,0,0,0,0-2.71"/><path class="cls-54" d="M176.65,172.18l.86.25.71.1-.09-.68-.43-.44-.48.22-.11.65c-.59.09-.3-.82-.06-1l.92-.2.5.6a3.72,3.72,0,0,1,.12,1.82h-.29v-.54l-.54-.07-.54-.1v.92l-.35,0c0-.37,0-.72,0-1.08Z"/><path class="cls-55" d="M180.72,174l-.5-.81-.3.12v.52h-.43a7.92,7.92,0,0,1,0-1.12l1.08.14.78-.83-.13-.76a.8.8,0,0,0-.94-.17l-.45.26-.32.13,0,.6v.6l.47,0c0-.52-.2-1.3.53-1.43.25,0,.74,0,.67.41l-.28.37-.27.33-.22.35"/><polyline class="cls-55" points="180.55 172.81 180.97 173.38 181.03 173.96 180.7 173.96 180.59 173.36 180.46 173.13 180.46 172.81"/><polyline class="cls-55" points="179.87 171.25 179.83 170.41 179.51 170.74 179.54 171.41 179.81 171.25"/><path class="cls-55" d="M182.29,171.13l.06.34.21.16.8,0c0,.51,0,1-.08,1.55l-.15.35-.33.07-.13-.12-.74-.15.21.32.72.19a5.08,5.08,0,0,0,1.39.15l0-.33-.79.07.1-1,.1-1,.6.11.49.06,0-.34c-.48,0-.92-.21-1.39-.27l-.53-.08-.48-.14"/><path class="cls-55" d="M186.21,171.51a4.84,4.84,0,0,1-.4,1.82l-.33.73-.14.18v.31l1.07,0,.47.42.6.35.3.05.13-.34c-.36,0-.68-.35-1-.51l-.5-.21-.34-.07-.37,0,.21-.56.42-.25a5.31,5.31,0,0,0,1.25-.06v-.28c-.43,0-.89,0-1.31,0l.18-.51.1-.25.45,0,1.1-.17,0-.32-.62.21h-.79l-.15-.39,0-.27-.31.08"/><path class="cls-55" d="M189.09,171.93v.67l0,.57.32,1a1.75,1.75,0,0,0,.84.83l.69.19.13-.09,0-.24-.87-.37-.54-.63-.23-.85,0-1v-.17l-.37.07"/></svg>